<?xml version="1.0" encoding="UTF-8" standalone="no"?>
<svg
   xmlns:dc="http://purl.org/dc/elements/1.1/"
   xmlns:cc="http://creativecommons.org/ns#"
   xmlns:rdf="http://www.w3.org/1999/02/22-rdf-syntax-ns#"
   xmlns:svg="http://www.w3.org/2000/svg"
   xmlns="http://www.w3.org/2000/svg"
   xmlns:sodipodi="http://sodipodi.sourceforge.net/DTD/sodipodi-0.dtd"
   xmlns:inkscape="http://www.inkscape.org/namespaces/inkscape"
   width="158.402344pt"
   height="49.515736pt"
   viewBox="0 0 158.402344 49.515736"
   version="1.2"
   id="svg115"
   sodipodi:docname="file_perms.svg"
   inkscape:version="0.92.4 (5da689c313, 2019-01-14)">
  <metadata
     id="metadata119">
    <rdf:RDF>
      <cc:Work
         rdf:about="">
        <dc:format>image/svg+xml</dc:format>
        <dc:type
           rdf:resource="http://purl.org/dc/dcmitype/StillImage" />
        <dc:title></dc:title>
      </cc:Work>
    </rdf:RDF>
  </metadata>
  <sodipodi:namedview
     pagecolor="#ffffff"
     bordercolor="#666666"
     borderopacity="1"
     objecttolerance="10"
     gridtolerance="10"
     guidetolerance="10"
     inkscape:pageopacity="0"
     inkscape:pageshadow="2"
     inkscape:window-width="782"
     inkscape:window-height="480"
     id="namedview117"
     showgrid="false"
     inkscape:zoom="1.6477029"
     inkscape:cx="105.60156"
     inkscape:cy="33.01049"
     inkscape:window-x="70"
     inkscape:window-y="27"
     inkscape:window-maximized="0"
     inkscape:current-layer="svg115" />
  <defs
     id="defs14">
    <clipPath
       id="clip1">
      <path
         d="M 0 0 L 158.402344 0 L 158.402344 49.515625 L 0 49.515625 Z M 0 0 "
         id="path2" />
    </clipPath>
    <clipPath
       id="clip2">
      <path
         d="M 51 42 L 56 42 L 56 49.515625 L 51 49.515625 Z M 51 42 "
         id="path5" />
    </clipPath>
    <clipPath
       id="clip3">
      <path
         d="M 116 0 L 120 0 L 120 7.335938 L 116 7.335938 Z M 116 0 "
         id="path8" />
    </clipPath>
    <clipPath
       id="clip4">
      <path
         d="M 120 0 L 124.910156 0 L 124.910156 7.335938 L 120 7.335938 Z M 120 0 "
         id="path11" />
    </clipPath>
  </defs>
  <g
     id="surface961">
    <g
       clip-path="url(#clip1)"
       clip-rule="nonzero"
       id="g18">
      <rect
         x="0"
         y="0"
         width="158.402344"
         height="49.515736"
         style="fill:rgb(100%,100%,100%);fill-opacity:1;stroke:none;"
         id="rect16" />
    </g>
    <path
       style=" stroke:none;fill-rule:nonzero;fill:rgb(0%,0%,0%);fill-opacity:1;"
       d="M 11.035156 47.179688 C 11.035156 47.203125 11.027344 47.222656 11.019531 47.242188 C 11.007812 47.265625 10.988281 47.285156 10.957031 47.304688 C 10.925781 47.3125 10.878906 47.320312 10.816406 47.320312 C 10.761719 47.328125 10.695312 47.335938 10.613281 47.335938 C 10.527344 47.335938 10.460938 47.328125 10.410156 47.320312 C 10.355469 47.320312 10.316406 47.3125 10.285156 47.304688 C 10.253906 47.285156 10.226562 47.265625 10.207031 47.242188 C 10.195312 47.222656 10.191406 47.203125 10.191406 47.179688 L 10.191406 42.554688 C 10.191406 42.535156 10.195312 42.515625 10.207031 42.492188 C 10.226562 42.472656 10.253906 42.457031 10.285156 42.445312 C 10.316406 42.4375 10.355469 42.425781 10.410156 42.414062 C 10.460938 42.40625 10.527344 42.398438 10.613281 42.398438 C 10.695312 42.398438 10.761719 42.40625 10.816406 42.414062 C 10.878906 42.425781 10.925781 42.4375 10.957031 42.445312 C 10.988281 42.457031 11.007812 42.472656 11.019531 42.492188 C 11.027344 42.515625 11.035156 42.535156 11.035156 42.554688 Z M 11.144531 41.007812 C 11.144531 41.207031 11.101562 41.34375 11.019531 41.414062 C 10.945312 41.488281 10.808594 41.523438 10.613281 41.523438 C 10.414062 41.523438 10.277344 41.488281 10.207031 41.414062 C 10.132812 41.34375 10.097656 41.207031 10.097656 41.007812 C 10.097656 40.8125 10.132812 40.679688 10.207031 40.617188 C 10.277344 40.546875 10.414062 40.507812 10.613281 40.507812 C 10.808594 40.507812 10.945312 40.546875 11.019531 40.617188 C 11.101562 40.679688 11.144531 40.8125 11.144531 41.007812 Z M 11.144531 41.007812 "
       id="path20" />
    <path
       style=" stroke:none;fill-rule:nonzero;fill:rgb(0%,0%,0%);fill-opacity:1;"
       d="M 15.128906 40.664062 C 15.128906 40.726562 15.121094 40.78125 15.113281 40.820312 C 15.113281 40.863281 15.105469 40.894531 15.097656 40.914062 C 15.085938 40.9375 15.070312 40.953125 15.050781 40.960938 C 15.039062 40.972656 15.023438 40.976562 15.003906 40.976562 C 14.980469 40.976562 14.949219 40.972656 14.910156 40.960938 C 14.878906 40.941406 14.835938 40.925781 14.785156 40.914062 C 14.730469 40.894531 14.667969 40.878906 14.597656 40.867188 C 14.535156 40.847656 14.457031 40.835938 14.363281 40.835938 C 14.238281 40.835938 14.128906 40.859375 14.035156 40.898438 C 13.949219 40.929688 13.878906 40.992188 13.816406 41.085938 C 13.761719 41.171875 13.726562 41.285156 13.707031 41.429688 C 13.683594 41.566406 13.675781 41.734375 13.675781 41.929688 L 13.675781 42.429688 L 14.707031 42.429688 C 14.726562 42.429688 14.746094 42.4375 14.769531 42.445312 C 14.789062 42.457031 14.804688 42.476562 14.816406 42.507812 C 14.835938 42.539062 14.851562 42.578125 14.863281 42.617188 C 14.871094 42.660156 14.878906 42.71875 14.878906 42.789062 C 14.878906 42.90625 14.863281 42.992188 14.832031 43.054688 C 14.800781 43.109375 14.757812 43.132812 14.707031 43.132812 L 13.675781 43.132812 L 13.675781 47.179688 C 13.675781 47.203125 13.664062 47.222656 13.644531 47.242188 C 13.632812 47.265625 13.613281 47.285156 13.582031 47.304688 C 13.550781 47.3125 13.503906 47.320312 13.441406 47.320312 C 13.386719 47.328125 13.324219 47.335938 13.253906 47.335938 C 13.167969 47.335938 13.097656 47.328125 13.035156 47.320312 C 12.980469 47.320312 12.941406 47.3125 12.910156 47.304688 C 12.878906 47.285156 12.851562 47.265625 12.832031 47.242188 C 12.820312 47.222656 12.816406 47.203125 12.816406 47.179688 L 12.816406 43.132812 L 12.175781 43.132812 C 12.113281 43.132812 12.066406 43.109375 12.035156 43.054688 C 12.011719 42.992188 12.003906 42.90625 12.003906 42.789062 C 12.003906 42.71875 12.003906 42.660156 12.003906 42.617188 C 12.011719 42.578125 12.023438 42.539062 12.035156 42.507812 C 12.054688 42.476562 12.074219 42.457031 12.097656 42.445312 C 12.117188 42.4375 12.144531 42.429688 12.175781 42.429688 L 12.816406 42.429688 L 12.816406 41.945312 C 12.816406 41.632812 12.847656 41.363281 12.910156 41.132812 C 12.972656 40.894531 13.058594 40.703125 13.175781 40.554688 C 13.300781 40.410156 13.457031 40.304688 13.644531 40.242188 C 13.832031 40.171875 14.050781 40.132812 14.300781 40.132812 C 14.425781 40.132812 14.542969 40.144531 14.660156 40.164062 C 14.773438 40.1875 14.855469 40.210938 14.910156 40.242188 C 14.972656 40.265625 15.011719 40.285156 15.035156 40.304688 C 15.054688 40.328125 15.070312 40.351562 15.082031 40.382812 C 15.101562 40.414062 15.113281 40.457031 15.113281 40.507812 C 15.121094 40.550781 15.128906 40.601562 15.128906 40.664062 Z M 15.128906 40.664062 "
       id="path22" />
    <path
       style=" stroke:none;fill-rule:nonzero;fill:rgb(0%,0%,0%);fill-opacity:1;"
       d="M 22.128906 47.179688 C 22.128906 47.203125 22.121094 47.222656 22.113281 47.242188 C 22.101562 47.265625 22.082031 47.285156 22.050781 47.304688 C 22.019531 47.3125 21.976562 47.320312 21.925781 47.320312 C 21.882812 47.328125 21.832031 47.335938 21.769531 47.335938 C 21.695312 47.335938 21.632812 47.328125 21.582031 47.320312 C 21.527344 47.320312 21.488281 47.3125 21.457031 47.304688 C 21.433594 47.285156 21.414062 47.265625 21.394531 47.242188 C 21.382812 47.222656 21.378906 47.203125 21.378906 47.179688 L 21.378906 46.570312 C 21.136719 46.832031 20.882812 47.035156 20.613281 47.179688 C 20.351562 47.324219 20.070312 47.398438 19.769531 47.398438 C 19.425781 47.398438 19.132812 47.335938 18.894531 47.210938 C 18.652344 47.078125 18.460938 46.898438 18.316406 46.679688 C 18.167969 46.453125 18.058594 46.1875 17.988281 45.882812 C 17.925781 45.582031 17.894531 45.265625 17.894531 44.929688 C 17.894531 44.535156 17.933594 44.175781 18.019531 43.851562 C 18.101562 43.53125 18.226562 43.257812 18.394531 43.039062 C 18.558594 42.8125 18.769531 42.640625 19.019531 42.523438 C 19.269531 42.398438 19.554688 42.335938 19.878906 42.335938 C 20.148438 42.335938 20.394531 42.394531 20.613281 42.507812 C 20.839844 42.625 21.066406 42.796875 21.285156 43.023438 L 21.285156 40.351562 C 21.285156 40.320312 21.289062 40.296875 21.300781 40.273438 C 21.308594 40.253906 21.332031 40.238281 21.363281 40.226562 C 21.402344 40.21875 21.449219 40.207031 21.503906 40.195312 C 21.554688 40.1875 21.621094 40.179688 21.707031 40.179688 C 21.789062 40.179688 21.855469 40.1875 21.910156 40.195312 C 21.960938 40.207031 22.003906 40.21875 22.035156 40.226562 C 22.066406 40.238281 22.085938 40.253906 22.097656 40.273438 C 22.117188 40.296875 22.128906 40.320312 22.128906 40.351562 Z M 21.285156 43.929688 C 21.054688 43.648438 20.832031 43.4375 20.613281 43.289062 C 20.402344 43.132812 20.179688 43.054688 19.941406 43.054688 C 19.730469 43.054688 19.550781 43.109375 19.394531 43.210938 C 19.246094 43.316406 19.128906 43.453125 19.035156 43.617188 C 18.941406 43.785156 18.871094 43.976562 18.832031 44.195312 C 18.789062 44.40625 18.769531 44.617188 18.769531 44.835938 C 18.769531 45.066406 18.785156 45.296875 18.816406 45.523438 C 18.855469 45.742188 18.917969 45.941406 19.003906 46.117188 C 19.097656 46.285156 19.214844 46.421875 19.363281 46.523438 C 19.507812 46.628906 19.691406 46.679688 19.910156 46.679688 C 20.023438 46.679688 20.132812 46.664062 20.238281 46.632812 C 20.339844 46.601562 20.445312 46.550781 20.550781 46.476562 C 20.664062 46.40625 20.777344 46.3125 20.894531 46.195312 C 21.019531 46.082031 21.148438 45.941406 21.285156 45.773438 Z M 21.285156 43.929688 "
       id="path24" />
    <path
       style=" stroke:none;fill-rule:nonzero;fill:rgb(0%,0%,0%);fill-opacity:1;"
       d="M 24.53125 47.179688 C 24.53125 47.203125 24.523438 47.222656 24.515625 47.242188 C 24.503906 47.265625 24.484375 47.285156 24.453125 47.304688 C 24.421875 47.3125 24.375 47.320312 24.3125 47.320312 C 24.257812 47.328125 24.191406 47.335938 24.109375 47.335938 C 24.023438 47.335938 23.957031 47.328125 23.90625 47.320312 C 23.851562 47.320312 23.8125 47.3125 23.78125 47.304688 C 23.75 47.285156 23.722656 47.265625 23.703125 47.242188 C 23.691406 47.222656 23.6875 47.203125 23.6875 47.179688 L 23.6875 42.554688 C 23.6875 42.535156 23.691406 42.515625 23.703125 42.492188 C 23.722656 42.472656 23.75 42.457031 23.78125 42.445312 C 23.8125 42.4375 23.851562 42.425781 23.90625 42.414062 C 23.957031 42.40625 24.023438 42.398438 24.109375 42.398438 C 24.191406 42.398438 24.257812 42.40625 24.3125 42.414062 C 24.375 42.425781 24.421875 42.4375 24.453125 42.445312 C 24.484375 42.457031 24.503906 42.472656 24.515625 42.492188 C 24.523438 42.515625 24.53125 42.535156 24.53125 42.554688 Z M 24.640625 41.007812 C 24.640625 41.207031 24.597656 41.34375 24.515625 41.414062 C 24.441406 41.488281 24.304688 41.523438 24.109375 41.523438 C 23.910156 41.523438 23.773438 41.488281 23.703125 41.414062 C 23.628906 41.34375 23.59375 41.207031 23.59375 41.007812 C 23.59375 40.8125 23.628906 40.679688 23.703125 40.617188 C 23.773438 40.546875 23.910156 40.507812 24.109375 40.507812 C 24.304688 40.507812 24.441406 40.546875 24.515625 40.617188 C 24.597656 40.679688 24.640625 40.8125 24.640625 41.007812 Z M 24.640625 41.007812 "
       id="path26" />
    <path
       style=" stroke:none;fill-rule:nonzero;fill:rgb(0%,0%,0%);fill-opacity:1;"
       d="M 28.800781 42.867188 C 28.800781 42.941406 28.792969 43.003906 28.785156 43.054688 C 28.785156 43.109375 28.777344 43.148438 28.769531 43.179688 C 28.757812 43.203125 28.742188 43.222656 28.722656 43.242188 C 28.710938 43.253906 28.695312 43.257812 28.675781 43.257812 C 28.644531 43.257812 28.605469 43.253906 28.566406 43.242188 C 28.523438 43.222656 28.476562 43.207031 28.425781 43.195312 C 28.382812 43.1875 28.332031 43.175781 28.269531 43.164062 C 28.207031 43.144531 28.136719 43.132812 28.066406 43.132812 C 27.980469 43.132812 27.898438 43.148438 27.816406 43.179688 C 27.730469 43.210938 27.644531 43.269531 27.550781 43.351562 C 27.464844 43.4375 27.371094 43.539062 27.269531 43.664062 C 27.175781 43.789062 27.066406 43.953125 26.941406 44.148438 L 26.941406 47.179688 C 26.941406 47.203125 26.933594 47.222656 26.925781 47.242188 C 26.914062 47.265625 26.894531 47.285156 26.863281 47.304688 C 26.832031 47.3125 26.785156 47.320312 26.722656 47.320312 C 26.667969 47.328125 26.601562 47.335938 26.519531 47.335938 C 26.433594 47.335938 26.367188 47.328125 26.316406 47.320312 C 26.261719 47.320312 26.222656 47.3125 26.191406 47.304688 C 26.160156 47.285156 26.132812 47.265625 26.113281 47.242188 C 26.101562 47.222656 26.097656 47.203125 26.097656 47.179688 L 26.097656 42.554688 C 26.097656 42.535156 26.101562 42.515625 26.113281 42.492188 C 26.121094 42.472656 26.144531 42.457031 26.175781 42.445312 C 26.207031 42.425781 26.242188 42.414062 26.285156 42.414062 C 26.335938 42.40625 26.402344 42.398438 26.488281 42.398438 C 26.558594 42.398438 26.621094 42.40625 26.675781 42.414062 C 26.726562 42.414062 26.761719 42.425781 26.785156 42.445312 C 26.816406 42.457031 26.835938 42.472656 26.847656 42.492188 C 26.855469 42.515625 26.863281 42.535156 26.863281 42.554688 L 26.863281 43.226562 C 26.988281 43.050781 27.105469 42.90625 27.222656 42.789062 C 27.335938 42.664062 27.441406 42.570312 27.535156 42.507812 C 27.636719 42.445312 27.738281 42.40625 27.832031 42.382812 C 27.925781 42.351562 28.023438 42.335938 28.128906 42.335938 C 28.167969 42.335938 28.214844 42.34375 28.269531 42.351562 C 28.332031 42.351562 28.394531 42.359375 28.457031 42.367188 C 28.519531 42.378906 28.570312 42.394531 28.613281 42.414062 C 28.664062 42.4375 28.699219 42.457031 28.722656 42.476562 C 28.742188 42.488281 28.753906 42.503906 28.753906 42.523438 C 28.761719 42.535156 28.769531 42.550781 28.769531 42.570312 C 28.777344 42.59375 28.785156 42.628906 28.785156 42.679688 C 28.792969 42.722656 28.800781 42.785156 28.800781 42.867188 Z M 28.800781 42.867188 "
       id="path28" />
    <path
       style=" stroke:none;fill-rule:nonzero;fill:rgb(0%,0%,0%);fill-opacity:1;"
       d="M 33.691406 44.664062 C 33.691406 44.800781 33.652344 44.898438 33.582031 44.960938 C 33.519531 45.015625 33.445312 45.039062 33.363281 45.039062 L 30.347656 45.039062 C 30.347656 45.300781 30.367188 45.535156 30.410156 45.742188 C 30.460938 45.941406 30.542969 46.113281 30.660156 46.257812 C 30.785156 46.40625 30.941406 46.519531 31.128906 46.601562 C 31.324219 46.675781 31.566406 46.710938 31.847656 46.710938 C 32.066406 46.710938 32.257812 46.695312 32.425781 46.664062 C 32.601562 46.625 32.753906 46.582031 32.878906 46.539062 C 33.003906 46.5 33.101562 46.460938 33.175781 46.429688 C 33.257812 46.390625 33.320312 46.367188 33.363281 46.367188 C 33.382812 46.367188 33.402344 46.375 33.425781 46.382812 C 33.445312 46.394531 33.460938 46.414062 33.472656 46.445312 C 33.480469 46.46875 33.488281 46.5 33.488281 46.539062 C 33.496094 46.582031 33.503906 46.632812 33.503906 46.695312 C 33.503906 46.738281 33.496094 46.773438 33.488281 46.804688 C 33.488281 46.835938 33.480469 46.867188 33.472656 46.898438 C 33.472656 46.921875 33.464844 46.941406 33.457031 46.960938 C 33.445312 46.984375 33.429688 47.003906 33.410156 47.023438 C 33.386719 47.046875 33.332031 47.078125 33.238281 47.117188 C 33.144531 47.160156 33.023438 47.203125 32.878906 47.242188 C 32.730469 47.285156 32.558594 47.320312 32.363281 47.351562 C 32.175781 47.382812 31.972656 47.398438 31.753906 47.398438 C 31.378906 47.398438 31.042969 47.34375 30.753906 47.242188 C 30.472656 47.140625 30.230469 46.984375 30.035156 46.773438 C 29.847656 46.566406 29.699219 46.304688 29.597656 45.992188 C 29.503906 45.671875 29.457031 45.300781 29.457031 44.882812 C 29.457031 44.488281 29.503906 44.132812 29.597656 43.820312 C 29.699219 43.507812 29.847656 43.242188 30.035156 43.023438 C 30.230469 42.796875 30.464844 42.625 30.738281 42.507812 C 31.019531 42.394531 31.324219 42.335938 31.660156 42.335938 C 32.023438 42.335938 32.332031 42.394531 32.582031 42.507812 C 32.839844 42.625 33.050781 42.78125 33.207031 42.976562 C 33.371094 43.175781 33.492188 43.410156 33.566406 43.679688 C 33.648438 43.941406 33.691406 44.21875 33.691406 44.507812 Z M 32.847656 44.414062 C 32.855469 43.976562 32.757812 43.632812 32.550781 43.382812 C 32.339844 43.125 32.035156 42.992188 31.628906 42.992188 C 31.417969 42.992188 31.238281 43.035156 31.082031 43.117188 C 30.925781 43.191406 30.789062 43.296875 30.675781 43.429688 C 30.570312 43.554688 30.488281 43.707031 30.425781 43.882812 C 30.371094 44.050781 30.347656 44.226562 30.347656 44.414062 Z M 32.847656 44.414062 "
       id="path30" />
    <path
       style=" stroke:none;fill-rule:nonzero;fill:rgb(0%,0%,0%);fill-opacity:1;"
       d="M 38.304688 46.476562 C 38.304688 46.53125 38.296875 46.582031 38.289062 46.632812 C 38.289062 46.675781 38.28125 46.710938 38.273438 46.742188 C 38.261719 46.765625 38.25 46.785156 38.242188 46.804688 C 38.230469 46.828125 38.203125 46.863281 38.164062 46.914062 C 38.121094 46.957031 38.046875 47.007812 37.945312 47.070312 C 37.839844 47.132812 37.71875 47.191406 37.585938 47.242188 C 37.460938 47.285156 37.324219 47.320312 37.179688 47.351562 C 37.03125 47.382812 36.875 47.398438 36.710938 47.398438 C 36.375 47.398438 36.078125 47.34375 35.820312 47.242188 C 35.570312 47.128906 35.355469 46.96875 35.179688 46.757812 C 35.011719 46.550781 34.882812 46.296875 34.789062 45.992188 C 34.703125 45.679688 34.664062 45.328125 34.664062 44.929688 C 34.664062 44.472656 34.714844 44.082031 34.820312 43.757812 C 34.933594 43.425781 35.085938 43.15625 35.273438 42.945312 C 35.46875 42.738281 35.699219 42.585938 35.960938 42.492188 C 36.21875 42.390625 36.5 42.335938 36.804688 42.335938 C 36.949219 42.335938 37.089844 42.351562 37.226562 42.382812 C 37.371094 42.40625 37.5 42.441406 37.617188 42.492188 C 37.730469 42.535156 37.835938 42.585938 37.929688 42.648438 C 38.023438 42.703125 38.089844 42.75 38.132812 42.789062 C 38.171875 42.832031 38.199219 42.863281 38.210938 42.882812 C 38.230469 42.90625 38.246094 42.9375 38.257812 42.976562 C 38.265625 43.007812 38.273438 43.046875 38.273438 43.085938 C 38.273438 43.128906 38.273438 43.175781 38.273438 43.226562 C 38.273438 43.363281 38.257812 43.457031 38.226562 43.507812 C 38.195312 43.5625 38.15625 43.585938 38.117188 43.585938 C 38.0625 43.585938 38 43.5625 37.929688 43.507812 C 37.867188 43.457031 37.78125 43.394531 37.679688 43.320312 C 37.585938 43.25 37.464844 43.1875 37.320312 43.132812 C 37.171875 43.082031 37 43.054688 36.804688 43.054688 C 36.398438 43.054688 36.085938 43.210938 35.867188 43.523438 C 35.648438 43.835938 35.539062 44.289062 35.539062 44.882812 C 35.539062 45.175781 35.5625 45.4375 35.617188 45.664062 C 35.679688 45.882812 35.761719 46.070312 35.867188 46.226562 C 35.980469 46.375 36.117188 46.484375 36.273438 46.554688 C 36.429688 46.628906 36.609375 46.664062 36.820312 46.664062 C 37.015625 46.664062 37.1875 46.632812 37.335938 46.570312 C 37.480469 46.507812 37.605469 46.441406 37.710938 46.367188 C 37.824219 46.296875 37.917969 46.234375 37.992188 46.179688 C 38.0625 46.117188 38.121094 46.085938 38.164062 46.085938 C 38.183594 46.085938 38.199219 46.097656 38.210938 46.117188 C 38.230469 46.128906 38.246094 46.148438 38.257812 46.179688 C 38.277344 46.210938 38.289062 46.253906 38.289062 46.304688 C 38.296875 46.347656 38.304688 46.40625 38.304688 46.476562 Z M 38.304688 46.476562 "
       id="path32" />
    <path
       style=" stroke:none;fill-rule:nonzero;fill:rgb(0%,0%,0%);fill-opacity:1;"
       d="M 41.820312 46.835938 C 41.820312 46.941406 41.808594 47.023438 41.789062 47.085938 C 41.777344 47.140625 41.757812 47.179688 41.726562 47.210938 C 41.703125 47.234375 41.664062 47.257812 41.601562 47.289062 C 41.546875 47.308594 41.484375 47.324219 41.414062 47.335938 C 41.351562 47.355469 41.277344 47.371094 41.195312 47.382812 C 41.121094 47.390625 41.042969 47.398438 40.960938 47.398438 C 40.71875 47.398438 40.515625 47.367188 40.351562 47.304688 C 40.183594 47.234375 40.042969 47.132812 39.929688 47.007812 C 39.824219 46.882812 39.746094 46.722656 39.695312 46.523438 C 39.640625 46.328125 39.617188 46.09375 39.617188 45.820312 L 39.617188 43.132812 L 38.976562 43.132812 C 38.921875 43.132812 38.882812 43.109375 38.851562 43.054688 C 38.820312 42.992188 38.804688 42.90625 38.804688 42.789062 C 38.804688 42.71875 38.804688 42.660156 38.804688 42.617188 C 38.8125 42.578125 38.824219 42.539062 38.835938 42.507812 C 38.855469 42.476562 38.875 42.457031 38.898438 42.445312 C 38.917969 42.4375 38.945312 42.429688 38.976562 42.429688 L 39.617188 42.429688 L 39.617188 41.335938 C 39.617188 41.304688 39.621094 41.28125 39.632812 41.257812 C 39.640625 41.238281 39.664062 41.222656 39.695312 41.210938 C 39.734375 41.203125 39.78125 41.191406 39.835938 41.179688 C 39.886719 41.171875 39.953125 41.164062 40.039062 41.164062 C 40.121094 41.164062 40.1875 41.171875 40.242188 41.179688 C 40.304688 41.191406 40.351562 41.203125 40.382812 41.210938 C 40.414062 41.222656 40.433594 41.238281 40.445312 41.257812 C 40.453125 41.28125 40.460938 41.304688 40.460938 41.335938 L 40.460938 42.429688 L 41.648438 42.429688 C 41.679688 42.429688 41.703125 42.4375 41.726562 42.445312 C 41.746094 42.457031 41.761719 42.476562 41.773438 42.507812 C 41.78125 42.539062 41.792969 42.578125 41.804688 42.617188 C 41.8125 42.660156 41.820312 42.71875 41.820312 42.789062 C 41.820312 42.90625 41.804688 42.992188 41.773438 43.054688 C 41.742188 43.109375 41.699219 43.132812 41.648438 43.132812 L 40.460938 43.132812 L 40.460938 45.710938 C 40.460938 46.023438 40.507812 46.265625 40.601562 46.429688 C 40.695312 46.585938 40.859375 46.664062 41.101562 46.664062 C 41.183594 46.664062 41.257812 46.660156 41.320312 46.648438 C 41.382812 46.628906 41.433594 46.613281 41.476562 46.601562 C 41.527344 46.582031 41.570312 46.566406 41.601562 46.554688 C 41.640625 46.535156 41.671875 46.523438 41.695312 46.523438 C 41.714844 46.523438 41.730469 46.53125 41.742188 46.539062 C 41.761719 46.550781 41.773438 46.566406 41.773438 46.585938 C 41.78125 46.609375 41.792969 46.640625 41.804688 46.679688 C 41.8125 46.722656 41.820312 46.773438 41.820312 46.835938 Z M 41.820312 46.835938 "
       id="path34" />
    <path
       style=" stroke:none;fill-rule:nonzero;fill:rgb(0%,0%,0%);fill-opacity:1;"
       d="M 47.226562 44.820312 C 47.226562 45.195312 47.171875 45.546875 47.070312 45.867188 C 46.976562 46.179688 46.828125 46.453125 46.632812 46.679688 C 46.433594 46.910156 46.183594 47.085938 45.882812 47.210938 C 45.589844 47.335938 45.25 47.398438 44.867188 47.398438 C 44.480469 47.398438 44.148438 47.34375 43.867188 47.242188 C 43.585938 47.128906 43.351562 46.960938 43.164062 46.742188 C 42.976562 46.523438 42.835938 46.265625 42.742188 45.960938 C 42.65625 45.648438 42.617188 45.300781 42.617188 44.914062 C 42.617188 44.539062 42.664062 44.195312 42.757812 43.882812 C 42.851562 43.5625 42.996094 43.285156 43.195312 43.054688 C 43.390625 42.828125 43.636719 42.648438 43.929688 42.523438 C 44.21875 42.398438 44.5625 42.335938 44.960938 42.335938 C 45.34375 42.335938 45.679688 42.394531 45.960938 42.507812 C 46.242188 42.613281 46.476562 42.773438 46.664062 42.992188 C 46.851562 43.210938 46.992188 43.476562 47.085938 43.789062 C 47.179688 44.09375 47.226562 44.4375 47.226562 44.820312 Z M 46.335938 44.867188 C 46.335938 44.628906 46.308594 44.398438 46.257812 44.179688 C 46.214844 43.953125 46.140625 43.753906 46.039062 43.585938 C 45.933594 43.421875 45.789062 43.289062 45.601562 43.195312 C 45.421875 43.09375 45.199219 43.039062 44.929688 43.039062 C 44.679688 43.039062 44.460938 43.085938 44.273438 43.179688 C 44.09375 43.265625 43.949219 43.390625 43.835938 43.554688 C 43.71875 43.710938 43.632812 43.90625 43.570312 44.132812 C 43.515625 44.351562 43.492188 44.59375 43.492188 44.851562 C 43.492188 45.101562 43.511719 45.34375 43.554688 45.570312 C 43.605469 45.789062 43.683594 45.984375 43.789062 46.148438 C 43.902344 46.316406 44.046875 46.453125 44.226562 46.554688 C 44.414062 46.648438 44.640625 46.695312 44.914062 46.695312 C 45.152344 46.695312 45.359375 46.65625 45.539062 46.570312 C 45.726562 46.476562 45.875 46.351562 45.992188 46.195312 C 46.105469 46.03125 46.1875 45.835938 46.242188 45.617188 C 46.304688 45.390625 46.335938 45.140625 46.335938 44.867188 Z M 46.335938 44.867188 "
       id="path36" />
    <path
       style=" stroke:none;fill-rule:nonzero;fill:rgb(0%,0%,0%);fill-opacity:1;"
       d="M 51.167969 42.867188 C 51.167969 42.941406 51.160156 43.003906 51.152344 43.054688 C 51.152344 43.109375 51.144531 43.148438 51.136719 43.179688 C 51.125 43.203125 51.109375 43.222656 51.089844 43.242188 C 51.078125 43.253906 51.0625 43.257812 51.042969 43.257812 C 51.011719 43.257812 50.972656 43.253906 50.933594 43.242188 C 50.890625 43.222656 50.84375 43.207031 50.792969 43.195312 C 50.75 43.1875 50.699219 43.175781 50.636719 43.164062 C 50.574219 43.144531 50.503906 43.132812 50.433594 43.132812 C 50.347656 43.132812 50.265625 43.148438 50.183594 43.179688 C 50.097656 43.210938 50.011719 43.269531 49.917969 43.351562 C 49.832031 43.4375 49.738281 43.539062 49.636719 43.664062 C 49.542969 43.789062 49.433594 43.953125 49.308594 44.148438 L 49.308594 47.179688 C 49.308594 47.203125 49.300781 47.222656 49.292969 47.242188 C 49.28125 47.265625 49.261719 47.285156 49.230469 47.304688 C 49.199219 47.3125 49.152344 47.320312 49.089844 47.320312 C 49.035156 47.328125 48.96875 47.335938 48.886719 47.335938 C 48.800781 47.335938 48.734375 47.328125 48.683594 47.320312 C 48.628906 47.320312 48.589844 47.3125 48.558594 47.304688 C 48.527344 47.285156 48.5 47.265625 48.480469 47.242188 C 48.46875 47.222656 48.464844 47.203125 48.464844 47.179688 L 48.464844 42.554688 C 48.464844 42.535156 48.46875 42.515625 48.480469 42.492188 C 48.488281 42.472656 48.511719 42.457031 48.542969 42.445312 C 48.574219 42.425781 48.609375 42.414062 48.652344 42.414062 C 48.703125 42.40625 48.769531 42.398438 48.855469 42.398438 C 48.925781 42.398438 48.988281 42.40625 49.042969 42.414062 C 49.09375 42.414062 49.128906 42.425781 49.152344 42.445312 C 49.183594 42.457031 49.203125 42.472656 49.214844 42.492188 C 49.222656 42.515625 49.230469 42.535156 49.230469 42.554688 L 49.230469 43.226562 C 49.355469 43.050781 49.472656 42.90625 49.589844 42.789062 C 49.703125 42.664062 49.808594 42.570312 49.902344 42.507812 C 50.003906 42.445312 50.105469 42.40625 50.199219 42.382812 C 50.292969 42.351562 50.390625 42.335938 50.496094 42.335938 C 50.535156 42.335938 50.582031 42.34375 50.636719 42.351562 C 50.699219 42.351562 50.761719 42.359375 50.824219 42.367188 C 50.886719 42.378906 50.9375 42.394531 50.980469 42.414062 C 51.03125 42.4375 51.066406 42.457031 51.089844 42.476562 C 51.109375 42.488281 51.121094 42.503906 51.121094 42.523438 C 51.128906 42.535156 51.136719 42.550781 51.136719 42.570312 C 51.144531 42.59375 51.152344 42.628906 51.152344 42.679688 C 51.160156 42.722656 51.167969 42.785156 51.167969 42.867188 Z M 51.167969 42.867188 "
       id="path38" />
    <g
       clip-path="url(#clip2)"
       clip-rule="nonzero"
       id="g42">
      <path
         style=" stroke:none;fill-rule:nonzero;fill:rgb(0%,0%,0%);fill-opacity:1;"
         d="M 54.230469 47.304688 L 53.605469 49.007812 C 53.582031 49.058594 53.53125 49.09375 53.449219 49.117188 C 53.363281 49.148438 53.238281 49.164062 53.074219 49.164062 C 52.980469 49.164062 52.90625 49.15625 52.855469 49.148438 C 52.800781 49.148438 52.761719 49.136719 52.730469 49.117188 C 52.699219 49.09375 52.683594 49.0625 52.683594 49.023438 C 52.683594 48.992188 52.691406 48.953125 52.714844 48.914062 L 53.339844 47.304688 C 53.308594 47.296875 53.277344 47.273438 53.246094 47.242188 C 53.222656 47.210938 53.207031 47.175781 53.199219 47.132812 L 51.558594 42.726562 C 51.527344 42.65625 51.511719 42.601562 51.511719 42.570312 C 51.511719 42.53125 51.519531 42.5 51.542969 42.476562 C 51.574219 42.445312 51.621094 42.425781 51.683594 42.414062 C 51.746094 42.40625 51.828125 42.398438 51.933594 42.398438 C 52.035156 42.398438 52.113281 42.40625 52.167969 42.414062 C 52.230469 42.414062 52.277344 42.425781 52.308594 42.445312 C 52.347656 42.457031 52.375 42.476562 52.386719 42.507812 C 52.40625 42.53125 52.421875 42.5625 52.433594 42.601562 L 53.761719 46.304688 L 53.777344 46.304688 L 55.042969 42.585938 C 55.0625 42.523438 55.082031 42.484375 55.105469 42.460938 C 55.136719 42.441406 55.183594 42.425781 55.246094 42.414062 C 55.308594 42.40625 55.390625 42.398438 55.496094 42.398438 C 55.589844 42.398438 55.667969 42.40625 55.730469 42.414062 C 55.792969 42.425781 55.839844 42.445312 55.871094 42.476562 C 55.902344 42.5 55.917969 42.53125 55.917969 42.570312 C 55.917969 42.601562 55.90625 42.648438 55.886719 42.710938 Z M 54.230469 47.304688 "
         id="path40" />
    </g>
    <path
       style="fill:none;stroke-width:0.583;stroke-linecap:butt;stroke-linejoin:round;stroke:rgb(0%,0%,0%);stroke-opacity:1;stroke-miterlimit:10;"
       d="M 14.160156 77.902344 C 12.335938 77.902344 10.855469 77.78125 10.855469 77.628906 L 10.855469 51.738281 C 10.855469 51.585938 12.335938 51.460938 14.160156 51.460938 "
       transform="matrix(0,1,1,0,0,0)"
       id="path44" />
    <path
       style="fill-rule:evenodd;fill:rgb(83.135986%,99.215698%,83.135986%);fill-opacity:1;stroke-width:0.43725;stroke-linecap:butt;stroke-linejoin:round;stroke:rgb(0%,0%,0%);stroke-opacity:1;stroke-miterlimit:10;"
       d="M 38.25 15.519531 L 136.582031 15.519531 L 136.582031 28.742188 L 38.25 28.742188 Z M 38.25 15.519531 "
       id="path46" />
    <path
       style="fill:none;stroke-width:0.43725;stroke-linecap:butt;stroke-linejoin:round;stroke:rgb(0%,0%,0%);stroke-opacity:1;stroke-miterlimit:10;"
       d="M 45.242188 29.890625 L 45.242188 40.394531 "
       id="path48" />
    <path
       style=" stroke:none;fill-rule:evenodd;fill:rgb(0%,0%,0%);fill-opacity:1;"
       d="M 45.242188 28.734375 L 47.789062 33.09375 C 47.949219 33.375 47.855469 33.730469 47.578125 33.894531 C 47.300781 34.054688 46.941406 33.960938 46.78125 33.683594 L 45.242188 31.046875 L 43.707031 33.683594 C 43.546875 33.960938 43.1875 34.054688 42.910156 33.894531 C 42.632812 33.730469 42.539062 33.375 42.699219 33.09375 Z M 45.242188 28.734375 "
       id="path50" />
    <path
       style="fill:none;stroke-width:0.43725;stroke-linecap:butt;stroke-linejoin:round;stroke:rgb(0%,0%,0%);stroke-opacity:1;stroke-miterlimit:10;"
       d="M 107.820312 15.910156 L 107.820312 29.210938 "
       id="path52" />
    <path
       style=" stroke:none;fill-rule:nonzero;fill:rgb(0%,0%,0%);fill-opacity:1;"
       d="M 55.808594 19.785156 L 55.808594 20.832031 C 56.203125 20.136719 56.605469 19.785156 57.011719 19.785156 C 57.199219 19.785156 57.355469 19.84375 57.480469 19.957031 C 57.605469 20.074219 57.667969 20.203125 57.667969 20.347656 C 57.667969 20.484375 57.621094 20.597656 57.527344 20.691406 C 57.441406 20.785156 57.339844 20.832031 57.214844 20.832031 C 57.097656 20.832031 56.964844 20.777344 56.808594 20.660156 C 56.660156 20.535156 56.550781 20.472656 56.480469 20.472656 C 56.417969 20.472656 56.347656 20.503906 56.277344 20.566406 C 56.128906 20.714844 55.972656 20.949219 55.808594 21.269531 L 55.808594 23.519531 C 55.808594 23.78125 55.839844 23.980469 55.902344 24.113281 C 55.941406 24.199219 56.019531 24.269531 56.136719 24.332031 C 56.25 24.394531 56.410156 24.425781 56.621094 24.425781 L 56.621094 24.613281 L 54.230469 24.613281 L 54.230469 24.425781 C 54.46875 24.425781 54.644531 24.390625 54.761719 24.316406 C 54.84375 24.265625 54.902344 24.175781 54.933594 24.050781 C 54.953125 24 54.964844 23.832031 54.964844 23.550781 L 54.964844 21.738281 C 54.964844 21.1875 54.953125 20.859375 54.933594 20.753906 C 54.910156 20.652344 54.871094 20.578125 54.808594 20.535156 C 54.746094 20.484375 54.671875 20.457031 54.589844 20.457031 C 54.472656 20.457031 54.355469 20.484375 54.230469 20.535156 L 54.167969 20.347656 L 55.589844 19.785156 Z M 55.808594 19.785156 "
       id="path54" />
    <path
       style=" stroke:none;fill-rule:nonzero;fill:rgb(0%,0%,0%);fill-opacity:1;"
       d="M 70.703125 19.910156 L 72.90625 19.910156 L 72.90625 20.113281 C 72.769531 20.113281 72.671875 20.140625 72.609375 20.191406 C 72.554688 20.234375 72.53125 20.292969 72.53125 20.363281 C 72.53125 20.449219 72.585938 20.578125 72.703125 20.753906 C 72.742188 20.808594 72.800781 20.890625 72.875 21.003906 L 73.21875 21.535156 L 73.59375 21.003906 C 73.84375 20.671875 73.96875 20.457031 73.96875 20.363281 C 73.96875 20.292969 73.9375 20.234375 73.875 20.191406 C 73.820312 20.140625 73.726562 20.113281 73.59375 20.113281 L 73.59375 19.910156 L 75.1875 19.910156 L 75.1875 20.113281 C 75.019531 20.125 74.875 20.167969 74.75 20.238281 C 74.582031 20.363281 74.351562 20.621094 74.0625 21.003906 L 73.421875 21.863281 L 74.59375 23.535156 C 74.875 23.953125 75.078125 24.203125 75.203125 24.285156 C 75.328125 24.371094 75.488281 24.417969 75.6875 24.425781 L 75.6875 24.613281 L 73.46875 24.613281 L 73.46875 24.425781 C 73.625 24.425781 73.742188 24.394531 73.828125 24.332031 C 73.890625 24.28125 73.921875 24.214844 73.921875 24.128906 C 73.921875 24.058594 73.8125 23.859375 73.59375 23.535156 L 72.90625 22.535156 L 72.15625 23.535156 C 71.925781 23.847656 71.8125 24.035156 71.8125 24.097656 C 71.8125 24.183594 71.847656 24.261719 71.921875 24.332031 C 72.003906 24.394531 72.117188 24.425781 72.265625 24.425781 L 72.265625 24.613281 L 70.734375 24.613281 L 70.734375 24.425781 C 70.859375 24.417969 70.96875 24.375 71.0625 24.300781 C 71.1875 24.199219 71.40625 23.941406 71.71875 23.535156 L 72.703125 22.238281 L 71.8125 20.941406 C 71.550781 20.578125 71.351562 20.347656 71.21875 20.253906 C 71.082031 20.160156 70.910156 20.113281 70.703125 20.113281 Z M 70.703125 19.910156 "
       id="path56" />
    <path
       style=" stroke:none;fill-rule:nonzero;fill:rgb(0%,0%,0%);fill-opacity:1;"
       d="M 60.265625 19.910156 L 62.234375 19.910156 L 62.234375 20.113281 C 62.054688 20.125 61.9375 20.15625 61.875 20.207031 C 61.820312 20.261719 61.796875 20.332031 61.796875 20.425781 C 61.796875 20.53125 61.828125 20.660156 61.890625 20.816406 L 62.890625 23.503906 L 63.90625 21.316406 L 63.640625 20.613281 C 63.554688 20.417969 63.445312 20.277344 63.3125 20.191406 C 63.238281 20.152344 63.097656 20.125 62.890625 20.113281 L 62.890625 19.910156 L 65.125 19.910156 L 65.125 20.113281 C 64.875 20.125 64.703125 20.167969 64.609375 20.238281 C 64.535156 20.292969 64.5 20.378906 64.5 20.503906 C 64.5 20.566406 64.515625 20.636719 64.546875 20.707031 L 65.609375 23.410156 L 66.59375 20.816406 C 66.664062 20.628906 66.703125 20.480469 66.703125 20.363281 C 66.703125 20.300781 66.664062 20.246094 66.59375 20.191406 C 66.53125 20.140625 66.398438 20.113281 66.203125 20.113281 L 66.203125 19.910156 L 67.6875 19.910156 L 67.6875 20.113281 C 67.394531 20.15625 67.175781 20.355469 67.03125 20.707031 L 65.46875 24.753906 L 65.25 24.753906 L 64.078125 21.753906 L 62.703125 24.753906 L 62.515625 24.753906 L 61.015625 20.816406 C 60.910156 20.566406 60.8125 20.402344 60.71875 20.316406 C 60.625 20.222656 60.472656 20.15625 60.265625 20.113281 Z M 60.265625 19.910156 "
       id="path58" />
    <path
       style=" stroke:none;fill-rule:nonzero;fill:rgb(0%,0%,0%);fill-opacity:1;"
       d="M 84.316406 19.785156 L 84.316406 20.832031 C 84.710938 20.136719 85.113281 19.785156 85.519531 19.785156 C 85.707031 19.785156 85.863281 19.84375 85.988281 19.957031 C 86.113281 20.074219 86.175781 20.203125 86.175781 20.347656 C 86.175781 20.484375 86.128906 20.597656 86.035156 20.691406 C 85.949219 20.785156 85.847656 20.832031 85.722656 20.832031 C 85.605469 20.832031 85.472656 20.777344 85.316406 20.660156 C 85.167969 20.535156 85.058594 20.472656 84.988281 20.472656 C 84.925781 20.472656 84.855469 20.503906 84.785156 20.566406 C 84.636719 20.714844 84.480469 20.949219 84.316406 21.269531 L 84.316406 23.519531 C 84.316406 23.78125 84.347656 23.980469 84.410156 24.113281 C 84.449219 24.199219 84.527344 24.269531 84.644531 24.332031 C 84.757812 24.394531 84.917969 24.425781 85.128906 24.425781 L 85.128906 24.613281 L 82.738281 24.613281 L 82.738281 24.425781 C 82.976562 24.425781 83.152344 24.390625 83.269531 24.316406 C 83.351562 24.265625 83.410156 24.175781 83.441406 24.050781 C 83.460938 24 83.472656 23.832031 83.472656 23.550781 L 83.472656 21.738281 C 83.472656 21.1875 83.460938 20.859375 83.441406 20.753906 C 83.417969 20.652344 83.378906 20.578125 83.316406 20.535156 C 83.253906 20.484375 83.179688 20.457031 83.097656 20.457031 C 82.980469 20.457031 82.863281 20.484375 82.738281 20.535156 L 82.675781 20.347656 L 84.097656 19.785156 Z M 84.316406 19.785156 "
       id="path60" />
    <path
       style=" stroke:none;fill-rule:nonzero;fill:rgb(0%,0%,0%);fill-opacity:1;"
       d="M 99.210938 19.910156 L 101.414062 19.910156 L 101.414062 20.113281 C 101.277344 20.113281 101.179688 20.140625 101.117188 20.191406 C 101.0625 20.234375 101.039062 20.292969 101.039062 20.363281 C 101.039062 20.449219 101.09375 20.578125 101.210938 20.753906 C 101.25 20.808594 101.308594 20.890625 101.382812 21.003906 L 101.726562 21.535156 L 102.101562 21.003906 C 102.351562 20.671875 102.476562 20.457031 102.476562 20.363281 C 102.476562 20.292969 102.445312 20.234375 102.382812 20.191406 C 102.328125 20.140625 102.234375 20.113281 102.101562 20.113281 L 102.101562 19.910156 L 103.695312 19.910156 L 103.695312 20.113281 C 103.527344 20.125 103.382812 20.167969 103.257812 20.238281 C 103.089844 20.363281 102.859375 20.621094 102.570312 21.003906 L 101.929688 21.863281 L 103.101562 23.535156 C 103.382812 23.953125 103.585938 24.203125 103.710938 24.285156 C 103.835938 24.371094 103.996094 24.417969 104.195312 24.425781 L 104.195312 24.613281 L 101.976562 24.613281 L 101.976562 24.425781 C 102.132812 24.425781 102.25 24.394531 102.335938 24.332031 C 102.398438 24.28125 102.429688 24.214844 102.429688 24.128906 C 102.429688 24.058594 102.320312 23.859375 102.101562 23.535156 L 101.414062 22.535156 L 100.664062 23.535156 C 100.433594 23.847656 100.320312 24.035156 100.320312 24.097656 C 100.320312 24.183594 100.355469 24.261719 100.429688 24.332031 C 100.511719 24.394531 100.625 24.425781 100.773438 24.425781 L 100.773438 24.613281 L 99.242188 24.613281 L 99.242188 24.425781 C 99.367188 24.417969 99.476562 24.375 99.570312 24.300781 C 99.695312 24.199219 99.914062 23.941406 100.226562 23.535156 L 101.210938 22.238281 L 100.320312 20.941406 C 100.058594 20.578125 99.859375 20.347656 99.726562 20.253906 C 99.589844 20.160156 99.417969 20.113281 99.210938 20.113281 Z M 99.210938 19.910156 "
       id="path62" />
    <path
       style=" stroke:none;fill-rule:nonzero;fill:rgb(0%,0%,0%);fill-opacity:1;"
       d="M 88.769531 19.910156 L 90.738281 19.910156 L 90.738281 20.113281 C 90.558594 20.125 90.441406 20.15625 90.378906 20.207031 C 90.324219 20.261719 90.300781 20.332031 90.300781 20.425781 C 90.300781 20.53125 90.332031 20.660156 90.394531 20.816406 L 91.394531 23.503906 L 92.410156 21.316406 L 92.144531 20.613281 C 92.058594 20.417969 91.949219 20.277344 91.816406 20.191406 C 91.742188 20.152344 91.601562 20.125 91.394531 20.113281 L 91.394531 19.910156 L 93.628906 19.910156 L 93.628906 20.113281 C 93.378906 20.125 93.207031 20.167969 93.113281 20.238281 C 93.039062 20.292969 93.003906 20.378906 93.003906 20.503906 C 93.003906 20.566406 93.019531 20.636719 93.050781 20.707031 L 94.113281 23.410156 L 95.097656 20.816406 C 95.167969 20.628906 95.207031 20.480469 95.207031 20.363281 C 95.207031 20.300781 95.167969 20.246094 95.097656 20.191406 C 95.035156 20.140625 94.902344 20.113281 94.707031 20.113281 L 94.707031 19.910156 L 96.191406 19.910156 L 96.191406 20.113281 C 95.898438 20.15625 95.679688 20.355469 95.535156 20.707031 L 93.972656 24.753906 L 93.753906 24.753906 L 92.582031 21.753906 L 91.207031 24.753906 L 91.019531 24.753906 L 89.519531 20.816406 C 89.414062 20.566406 89.316406 20.402344 89.222656 20.316406 C 89.128906 20.222656 88.976562 20.15625 88.769531 20.113281 Z M 88.769531 19.910156 "
       id="path64" />
    <path
       style=" stroke:none;fill-rule:nonzero;fill:rgb(0%,0%,0%);fill-opacity:1;"
       d="M 113.078125 19.785156 L 113.078125 20.832031 C 113.472656 20.136719 113.875 19.785156 114.28125 19.785156 C 114.46875 19.785156 114.625 19.84375 114.75 19.957031 C 114.875 20.074219 114.9375 20.203125 114.9375 20.347656 C 114.9375 20.484375 114.890625 20.597656 114.796875 20.691406 C 114.710938 20.785156 114.609375 20.832031 114.484375 20.832031 C 114.367188 20.832031 114.234375 20.777344 114.078125 20.660156 C 113.929688 20.535156 113.820312 20.472656 113.75 20.472656 C 113.6875 20.472656 113.617188 20.503906 113.546875 20.566406 C 113.398438 20.714844 113.242188 20.949219 113.078125 21.269531 L 113.078125 23.519531 C 113.078125 23.78125 113.109375 23.980469 113.171875 24.113281 C 113.210938 24.199219 113.289062 24.269531 113.40625 24.332031 C 113.519531 24.394531 113.679688 24.425781 113.890625 24.425781 L 113.890625 24.613281 L 111.5 24.613281 L 111.5 24.425781 C 111.738281 24.425781 111.914062 24.390625 112.03125 24.316406 C 112.113281 24.265625 112.171875 24.175781 112.203125 24.050781 C 112.222656 24 112.234375 23.832031 112.234375 23.550781 L 112.234375 21.738281 C 112.234375 21.1875 112.222656 20.859375 112.203125 20.753906 C 112.179688 20.652344 112.140625 20.578125 112.078125 20.535156 C 112.015625 20.484375 111.941406 20.457031 111.859375 20.457031 C 111.742188 20.457031 111.625 20.484375 111.5 20.535156 L 111.4375 20.347656 L 112.859375 19.785156 Z M 113.078125 19.785156 "
       id="path66" />
    <path
       style=" stroke:none;fill-rule:nonzero;fill:rgb(0%,0%,0%);fill-opacity:1;"
       d="M 127.972656 19.910156 L 130.175781 19.910156 L 130.175781 20.113281 C 130.039062 20.113281 129.941406 20.140625 129.878906 20.191406 C 129.824219 20.234375 129.800781 20.292969 129.800781 20.363281 C 129.800781 20.449219 129.855469 20.578125 129.972656 20.753906 C 130.011719 20.808594 130.070312 20.890625 130.144531 21.003906 L 130.488281 21.535156 L 130.863281 21.003906 C 131.113281 20.671875 131.238281 20.457031 131.238281 20.363281 C 131.238281 20.292969 131.207031 20.234375 131.144531 20.191406 C 131.089844 20.140625 130.996094 20.113281 130.863281 20.113281 L 130.863281 19.910156 L 132.457031 19.910156 L 132.457031 20.113281 C 132.289062 20.125 132.144531 20.167969 132.019531 20.238281 C 131.851562 20.363281 131.621094 20.621094 131.332031 21.003906 L 130.691406 21.863281 L 131.863281 23.535156 C 132.144531 23.953125 132.347656 24.203125 132.472656 24.285156 C 132.597656 24.371094 132.757812 24.417969 132.957031 24.425781 L 132.957031 24.613281 L 130.738281 24.613281 L 130.738281 24.425781 C 130.894531 24.425781 131.011719 24.394531 131.097656 24.332031 C 131.160156 24.28125 131.191406 24.214844 131.191406 24.128906 C 131.191406 24.058594 131.082031 23.859375 130.863281 23.535156 L 130.175781 22.535156 L 129.425781 23.535156 C 129.195312 23.847656 129.082031 24.035156 129.082031 24.097656 C 129.082031 24.183594 129.117188 24.261719 129.191406 24.332031 C 129.273438 24.394531 129.386719 24.425781 129.535156 24.425781 L 129.535156 24.613281 L 128.003906 24.613281 L 128.003906 24.425781 C 128.128906 24.417969 128.238281 24.375 128.332031 24.300781 C 128.457031 24.199219 128.675781 23.941406 128.988281 23.535156 L 129.972656 22.238281 L 129.082031 20.941406 C 128.820312 20.578125 128.621094 20.347656 128.488281 20.253906 C 128.351562 20.160156 128.179688 20.113281 127.972656 20.113281 Z M 127.972656 19.910156 "
       id="path68" />
    <path
       style=" stroke:none;fill-rule:nonzero;fill:rgb(0%,0%,0%);fill-opacity:1;"
       d="M 117.53125 19.910156 L 119.5 19.910156 L 119.5 20.113281 C 119.320312 20.125 119.203125 20.15625 119.140625 20.207031 C 119.085938 20.261719 119.0625 20.332031 119.0625 20.425781 C 119.0625 20.53125 119.09375 20.660156 119.15625 20.816406 L 120.15625 23.503906 L 121.171875 21.316406 L 120.90625 20.613281 C 120.820312 20.417969 120.710938 20.277344 120.578125 20.191406 C 120.503906 20.152344 120.363281 20.125 120.15625 20.113281 L 120.15625 19.910156 L 122.390625 19.910156 L 122.390625 20.113281 C 122.140625 20.125 121.96875 20.167969 121.875 20.238281 C 121.800781 20.292969 121.765625 20.378906 121.765625 20.503906 C 121.765625 20.566406 121.78125 20.636719 121.8125 20.707031 L 122.875 23.410156 L 123.859375 20.816406 C 123.929688 20.628906 123.96875 20.480469 123.96875 20.363281 C 123.96875 20.300781 123.929688 20.246094 123.859375 20.191406 C 123.796875 20.140625 123.664062 20.113281 123.46875 20.113281 L 123.46875 19.910156 L 124.953125 19.910156 L 124.953125 20.113281 C 124.660156 20.15625 124.441406 20.355469 124.296875 20.707031 L 122.734375 24.753906 L 122.515625 24.753906 L 121.34375 21.753906 L 119.96875 24.753906 L 119.78125 24.753906 L 118.28125 20.816406 C 118.175781 20.566406 118.078125 20.402344 117.984375 20.316406 C 117.890625 20.222656 117.738281 20.15625 117.53125 20.113281 Z M 117.53125 19.910156 "
       id="path70" />
    <path
       style="fill:none;stroke-width:0.43725;stroke-linecap:butt;stroke-linejoin:round;stroke:rgb(0%,0%,0%);stroke-opacity:1;stroke-miterlimit:10;"
       d="M 79.445312 15.90625 L 79.445312 29.210938 "
       id="path72" />
    <path
       style="fill:none;stroke-width:0.43725;stroke-linecap:butt;stroke-linejoin:round;stroke:rgb(0%,0%,0%);stroke-opacity:1;stroke-miterlimit:10;"
       d="M 51.074219 15.519531 L 51.074219 28.824219 "
       id="path74" />
    <path
       style=" stroke:none;fill-rule:nonzero;fill:rgb(0%,0%,0%);fill-opacity:1;"
       d="M 45.910156 24.082031 C 45.679688 24.324219 45.457031 24.496094 45.238281 24.597656 C 45.019531 24.699219 44.785156 24.753906 44.535156 24.753906 C 44.023438 24.753906 43.574219 24.542969 43.191406 24.113281 C 42.804688 23.6875 42.613281 23.136719 42.613281 22.457031 C 42.613281 21.792969 42.824219 21.175781 43.253906 20.613281 C 43.679688 20.050781 44.226562 19.769531 44.894531 19.769531 C 45.300781 19.769531 45.636719 19.90625 45.910156 20.175781 L 45.910156 19.300781 C 45.910156 18.769531 45.894531 18.441406 45.863281 18.316406 C 45.839844 18.191406 45.804688 18.109375 45.753906 18.066406 C 45.699219 18.015625 45.632812 17.988281 45.550781 17.988281 C 45.457031 17.988281 45.335938 18.019531 45.191406 18.082031 L 45.128906 17.894531 L 46.535156 17.316406 L 46.753906 17.316406 L 46.753906 22.753906 C 46.753906 23.308594 46.761719 23.644531 46.785156 23.769531 C 46.816406 23.886719 46.855469 23.96875 46.910156 24.019531 C 46.972656 24.0625 47.039062 24.082031 47.113281 24.082031 C 47.207031 24.082031 47.332031 24.058594 47.488281 24.003906 L 47.550781 24.175781 L 46.144531 24.753906 L 45.910156 24.753906 Z M 45.910156 23.722656 L 45.910156 21.300781 C 45.886719 21.074219 45.824219 20.863281 45.722656 20.675781 C 45.628906 20.480469 45.492188 20.332031 45.316406 20.238281 C 45.148438 20.144531 44.988281 20.097656 44.832031 20.097656 C 44.527344 20.097656 44.257812 20.234375 44.019531 20.503906 C 43.707031 20.859375 43.550781 21.375 43.550781 22.050781 C 43.550781 22.75 43.699219 23.28125 44.003906 23.644531 C 44.304688 24.011719 44.644531 24.191406 45.019531 24.191406 C 45.320312 24.191406 45.617188 24.035156 45.910156 23.722656 Z M 45.910156 23.722656 "
       id="path76" />
    <path
       style=" stroke:none;fill-rule:nonzero;fill:rgb(0%,0%,0%);fill-opacity:1;"
       d="M 59.617188 7 C 59.617188 7.023438 59.609375 7.042969 59.601562 7.0625 C 59.589844 7.085938 59.570312 7.105469 59.539062 7.125 C 59.507812 7.132812 59.464844 7.140625 59.414062 7.140625 C 59.359375 7.148438 59.304688 7.15625 59.242188 7.15625 C 59.15625 7.15625 59.089844 7.148438 59.039062 7.140625 C 58.996094 7.140625 58.960938 7.132812 58.929688 7.125 C 58.898438 7.105469 58.875 7.085938 58.867188 7.0625 C 58.855469 7.042969 58.851562 7.023438 58.851562 7 L 58.851562 6.390625 C 58.589844 6.683594 58.328125 6.898438 58.070312 7.03125 C 57.808594 7.15625 57.546875 7.21875 57.289062 7.21875 C 56.984375 7.21875 56.726562 7.171875 56.507812 7.078125 C 56.296875 6.976562 56.125 6.835938 55.992188 6.65625 C 55.867188 6.480469 55.777344 6.277344 55.726562 6.046875 C 55.671875 5.808594 55.648438 5.523438 55.648438 5.1875 L 55.648438 2.375 C 55.648438 2.355469 55.652344 2.335938 55.664062 2.3125 C 55.671875 2.292969 55.695312 2.277344 55.726562 2.265625 C 55.757812 2.246094 55.796875 2.234375 55.851562 2.234375 C 55.914062 2.226562 55.984375 2.21875 56.070312 2.21875 C 56.152344 2.21875 56.21875 2.226562 56.273438 2.234375 C 56.324219 2.234375 56.367188 2.246094 56.398438 2.265625 C 56.429688 2.277344 56.449219 2.292969 56.460938 2.3125 C 56.480469 2.335938 56.492188 2.355469 56.492188 2.375 L 56.492188 5.0625 C 56.492188 5.335938 56.511719 5.554688 56.554688 5.71875 C 56.59375 5.886719 56.652344 6.027344 56.726562 6.140625 C 56.808594 6.246094 56.914062 6.335938 57.039062 6.40625 C 57.164062 6.46875 57.304688 6.5 57.460938 6.5 C 57.679688 6.5 57.890625 6.429688 58.101562 6.28125 C 58.308594 6.125 58.53125 5.902344 58.773438 5.609375 L 58.773438 2.375 C 58.773438 2.355469 58.777344 2.335938 58.789062 2.3125 C 58.796875 2.292969 58.820312 2.277344 58.851562 2.265625 C 58.890625 2.246094 58.9375 2.234375 58.992188 2.234375 C 59.042969 2.226562 59.109375 2.21875 59.195312 2.21875 C 59.277344 2.21875 59.34375 2.226562 59.398438 2.234375 C 59.449219 2.234375 59.492188 2.246094 59.523438 2.265625 C 59.554688 2.277344 59.574219 2.292969 59.585938 2.3125 C 59.605469 2.335938 59.617188 2.355469 59.617188 2.375 Z M 59.617188 7 "
       id="path78" />
    <path
       style=" stroke:none;fill-rule:nonzero;fill:rgb(0%,0%,0%);fill-opacity:1;"
       d="M 64.082031 5.734375 C 64.082031 5.976562 64.035156 6.1875 63.941406 6.375 C 63.855469 6.554688 63.730469 6.710938 63.566406 6.84375 C 63.410156 6.96875 63.214844 7.0625 62.988281 7.125 C 62.769531 7.1875 62.527344 7.21875 62.269531 7.21875 C 62.101562 7.21875 61.941406 7.203125 61.785156 7.171875 C 61.636719 7.148438 61.507812 7.125 61.394531 7.09375 C 61.277344 7.054688 61.179688 7.011719 61.097656 6.96875 C 61.011719 6.929688 60.949219 6.890625 60.910156 6.859375 C 60.878906 6.820312 60.851562 6.765625 60.832031 6.703125 C 60.820312 6.640625 60.816406 6.558594 60.816406 6.453125 C 60.816406 6.390625 60.816406 6.339844 60.816406 6.296875 C 60.824219 6.246094 60.835938 6.210938 60.847656 6.1875 C 60.855469 6.15625 60.867188 6.136719 60.878906 6.125 C 60.898438 6.117188 60.925781 6.109375 60.957031 6.109375 C 60.988281 6.109375 61.039062 6.136719 61.113281 6.1875 C 61.183594 6.230469 61.273438 6.277344 61.378906 6.328125 C 61.492188 6.382812 61.621094 6.433594 61.769531 6.484375 C 61.914062 6.527344 62.085938 6.546875 62.285156 6.546875 C 62.429688 6.546875 62.558594 6.53125 62.675781 6.5 C 62.789062 6.46875 62.886719 6.429688 62.972656 6.375 C 63.054688 6.3125 63.117188 6.234375 63.160156 6.140625 C 63.210938 6.046875 63.238281 5.9375 63.238281 5.8125 C 63.238281 5.679688 63.199219 5.570312 63.128906 5.484375 C 63.066406 5.390625 62.976562 5.3125 62.863281 5.25 C 62.757812 5.179688 62.636719 5.117188 62.503906 5.0625 C 62.367188 5.011719 62.226562 4.960938 62.082031 4.90625 C 61.933594 4.84375 61.792969 4.777344 61.660156 4.703125 C 61.523438 4.632812 61.398438 4.542969 61.285156 4.4375 C 61.179688 4.324219 61.089844 4.195312 61.019531 4.046875 C 60.957031 3.902344 60.925781 3.726562 60.925781 3.515625 C 60.925781 3.339844 60.957031 3.167969 61.019531 3 C 61.089844 2.835938 61.195312 2.6875 61.332031 2.5625 C 61.476562 2.4375 61.652344 2.339844 61.863281 2.265625 C 62.082031 2.195312 62.324219 2.15625 62.597656 2.15625 C 62.722656 2.15625 62.847656 2.167969 62.972656 2.1875 C 63.097656 2.210938 63.207031 2.234375 63.300781 2.265625 C 63.402344 2.296875 63.488281 2.328125 63.550781 2.359375 C 63.621094 2.390625 63.675781 2.421875 63.707031 2.453125 C 63.746094 2.484375 63.773438 2.511719 63.785156 2.53125 C 63.804688 2.554688 63.816406 2.578125 63.816406 2.609375 C 63.824219 2.632812 63.832031 2.664062 63.832031 2.703125 C 63.839844 2.734375 63.847656 2.777344 63.847656 2.828125 C 63.847656 2.890625 63.839844 2.945312 63.832031 2.984375 C 63.832031 3.027344 63.820312 3.0625 63.800781 3.09375 C 63.789062 3.117188 63.773438 3.132812 63.753906 3.140625 C 63.742188 3.152344 63.726562 3.15625 63.707031 3.15625 C 63.675781 3.15625 63.628906 3.140625 63.566406 3.109375 C 63.511719 3.070312 63.441406 3.027344 63.347656 2.984375 C 63.253906 2.945312 63.144531 2.90625 63.019531 2.875 C 62.894531 2.835938 62.753906 2.8125 62.597656 2.8125 C 62.449219 2.8125 62.320312 2.828125 62.207031 2.859375 C 62.101562 2.890625 62.011719 2.9375 61.941406 3 C 61.878906 3.054688 61.824219 3.121094 61.785156 3.203125 C 61.753906 3.289062 61.738281 3.375 61.738281 3.46875 C 61.738281 3.605469 61.769531 3.71875 61.832031 3.8125 C 61.902344 3.90625 61.992188 3.992188 62.097656 4.0625 C 62.210938 4.125 62.335938 4.183594 62.472656 4.234375 C 62.617188 4.289062 62.761719 4.34375 62.910156 4.40625 C 63.054688 4.460938 63.195312 4.523438 63.332031 4.59375 C 63.476562 4.667969 63.601562 4.757812 63.707031 4.859375 C 63.820312 4.964844 63.910156 5.089844 63.972656 5.234375 C 64.042969 5.371094 64.082031 5.539062 64.082031 5.734375 Z M 64.082031 5.734375 "
       id="path80" />
    <path
       style=" stroke:none;fill-rule:nonzero;fill:rgb(0%,0%,0%);fill-opacity:1;"
       d="M 69.21875 4.484375 C 69.21875 4.621094 69.179688 4.71875 69.109375 4.78125 C 69.046875 4.835938 68.972656 4.859375 68.890625 4.859375 L 65.875 4.859375 C 65.875 5.121094 65.894531 5.355469 65.9375 5.5625 C 65.988281 5.761719 66.070312 5.933594 66.1875 6.078125 C 66.3125 6.226562 66.46875 6.339844 66.65625 6.421875 C 66.851562 6.496094 67.09375 6.53125 67.375 6.53125 C 67.59375 6.53125 67.785156 6.515625 67.953125 6.484375 C 68.128906 6.445312 68.28125 6.402344 68.40625 6.359375 C 68.53125 6.320312 68.628906 6.28125 68.703125 6.25 C 68.785156 6.210938 68.847656 6.1875 68.890625 6.1875 C 68.910156 6.1875 68.929688 6.195312 68.953125 6.203125 C 68.972656 6.214844 68.988281 6.234375 69 6.265625 C 69.007812 6.289062 69.015625 6.320312 69.015625 6.359375 C 69.023438 6.402344 69.03125 6.453125 69.03125 6.515625 C 69.03125 6.558594 69.023438 6.59375 69.015625 6.625 C 69.015625 6.65625 69.007812 6.6875 69 6.71875 C 69 6.742188 68.992188 6.761719 68.984375 6.78125 C 68.972656 6.804688 68.957031 6.824219 68.9375 6.84375 C 68.914062 6.867188 68.859375 6.898438 68.765625 6.9375 C 68.671875 6.980469 68.550781 7.023438 68.40625 7.0625 C 68.257812 7.105469 68.085938 7.140625 67.890625 7.171875 C 67.703125 7.203125 67.5 7.21875 67.28125 7.21875 C 66.90625 7.21875 66.570312 7.164062 66.28125 7.0625 C 66 6.960938 65.757812 6.804688 65.5625 6.59375 C 65.375 6.386719 65.226562 6.125 65.125 5.8125 C 65.03125 5.492188 64.984375 5.121094 64.984375 4.703125 C 64.984375 4.308594 65.03125 3.953125 65.125 3.640625 C 65.226562 3.328125 65.375 3.0625 65.5625 2.84375 C 65.757812 2.617188 65.992188 2.445312 66.265625 2.328125 C 66.546875 2.214844 66.851562 2.15625 67.1875 2.15625 C 67.550781 2.15625 67.859375 2.214844 68.109375 2.328125 C 68.367188 2.445312 68.578125 2.601562 68.734375 2.796875 C 68.898438 2.996094 69.019531 3.230469 69.09375 3.5 C 69.175781 3.761719 69.21875 4.039062 69.21875 4.328125 Z M 68.375 4.234375 C 68.382812 3.796875 68.285156 3.453125 68.078125 3.203125 C 67.867188 2.945312 67.5625 2.8125 67.15625 2.8125 C 66.945312 2.8125 66.765625 2.855469 66.609375 2.9375 C 66.453125 3.011719 66.316406 3.117188 66.203125 3.25 C 66.097656 3.375 66.015625 3.527344 65.953125 3.703125 C 65.898438 3.871094 65.875 4.046875 65.875 4.234375 Z M 68.375 4.234375 "
       id="path82" />
    <path
       style=" stroke:none;fill-rule:nonzero;fill:rgb(0%,0%,0%);fill-opacity:1;"
       d="M 73.207031 2.6875 C 73.207031 2.761719 73.199219 2.824219 73.191406 2.875 C 73.191406 2.929688 73.183594 2.96875 73.175781 3 C 73.164062 3.023438 73.148438 3.042969 73.128906 3.0625 C 73.117188 3.074219 73.101562 3.078125 73.082031 3.078125 C 73.050781 3.078125 73.011719 3.074219 72.972656 3.0625 C 72.929688 3.042969 72.882812 3.027344 72.832031 3.015625 C 72.789062 3.007812 72.738281 2.996094 72.675781 2.984375 C 72.613281 2.964844 72.542969 2.953125 72.472656 2.953125 C 72.386719 2.953125 72.304688 2.96875 72.222656 3 C 72.136719 3.03125 72.050781 3.089844 71.957031 3.171875 C 71.871094 3.257812 71.777344 3.359375 71.675781 3.484375 C 71.582031 3.609375 71.472656 3.773438 71.347656 3.96875 L 71.347656 7 C 71.347656 7.023438 71.339844 7.042969 71.332031 7.0625 C 71.320312 7.085938 71.300781 7.105469 71.269531 7.125 C 71.238281 7.132812 71.191406 7.140625 71.128906 7.140625 C 71.074219 7.148438 71.007812 7.15625 70.925781 7.15625 C 70.839844 7.15625 70.773438 7.148438 70.722656 7.140625 C 70.667969 7.140625 70.628906 7.132812 70.597656 7.125 C 70.566406 7.105469 70.539062 7.085938 70.519531 7.0625 C 70.507812 7.042969 70.503906 7.023438 70.503906 7 L 70.503906 2.375 C 70.503906 2.355469 70.507812 2.335938 70.519531 2.3125 C 70.527344 2.292969 70.550781 2.277344 70.582031 2.265625 C 70.613281 2.246094 70.648438 2.234375 70.691406 2.234375 C 70.742188 2.226562 70.808594 2.21875 70.894531 2.21875 C 70.964844 2.21875 71.027344 2.226562 71.082031 2.234375 C 71.132812 2.234375 71.167969 2.246094 71.191406 2.265625 C 71.222656 2.277344 71.242188 2.292969 71.253906 2.3125 C 71.261719 2.335938 71.269531 2.355469 71.269531 2.375 L 71.269531 3.046875 C 71.394531 2.871094 71.511719 2.726562 71.628906 2.609375 C 71.742188 2.484375 71.847656 2.390625 71.941406 2.328125 C 72.042969 2.265625 72.144531 2.226562 72.238281 2.203125 C 72.332031 2.171875 72.429688 2.15625 72.535156 2.15625 C 72.574219 2.15625 72.621094 2.164062 72.675781 2.171875 C 72.738281 2.171875 72.800781 2.179688 72.863281 2.1875 C 72.925781 2.199219 72.976562 2.214844 73.019531 2.234375 C 73.070312 2.257812 73.105469 2.277344 73.128906 2.296875 C 73.148438 2.308594 73.160156 2.324219 73.160156 2.34375 C 73.167969 2.355469 73.175781 2.371094 73.175781 2.390625 C 73.183594 2.414062 73.191406 2.449219 73.191406 2.5 C 73.199219 2.542969 73.207031 2.605469 73.207031 2.6875 Z M 73.207031 2.6875 "
       id="path84" />
    <path
       style=" stroke:none;fill-rule:nonzero;fill:rgb(0%,0%,0%);fill-opacity:1;"
       d="M 85.140625 2.59375 C 85.140625 2.710938 85.125 2.796875 85.09375 2.859375 C 85.0625 2.914062 85.019531 2.9375 84.96875 2.9375 L 84.296875 2.9375 C 84.421875 3.054688 84.503906 3.1875 84.546875 3.34375 C 84.597656 3.492188 84.625 3.640625 84.625 3.796875 C 84.625 4.070312 84.582031 4.308594 84.5 4.515625 C 84.414062 4.714844 84.289062 4.886719 84.125 5.03125 C 83.96875 5.179688 83.78125 5.289062 83.5625 5.359375 C 83.34375 5.433594 83.101562 5.46875 82.84375 5.46875 C 82.65625 5.46875 82.472656 5.445312 82.296875 5.390625 C 82.128906 5.339844 82 5.277344 81.90625 5.203125 C 81.84375 5.265625 81.789062 5.339844 81.75 5.421875 C 81.71875 5.496094 81.703125 5.585938 81.703125 5.6875 C 81.703125 5.8125 81.753906 5.917969 81.859375 6 C 81.972656 6.074219 82.125 6.109375 82.3125 6.109375 L 83.515625 6.171875 C 83.742188 6.171875 83.953125 6.203125 84.140625 6.265625 C 84.335938 6.320312 84.503906 6.398438 84.640625 6.5 C 84.785156 6.605469 84.894531 6.734375 84.96875 6.890625 C 85.050781 7.039062 85.09375 7.210938 85.09375 7.421875 C 85.09375 7.628906 85.046875 7.828125 84.953125 8.015625 C 84.867188 8.210938 84.734375 8.382812 84.546875 8.53125 C 84.367188 8.675781 84.132812 8.789062 83.84375 8.875 C 83.5625 8.957031 83.226562 9 82.84375 9 C 82.46875 9 82.148438 8.96875 81.890625 8.90625 C 81.628906 8.84375 81.414062 8.753906 81.25 8.640625 C 81.082031 8.535156 80.957031 8.40625 80.875 8.25 C 80.800781 8.09375 80.765625 7.925781 80.765625 7.75 C 80.765625 7.644531 80.78125 7.535156 80.8125 7.421875 C 80.84375 7.316406 80.882812 7.21875 80.9375 7.125 C 80.988281 7.03125 81.054688 6.945312 81.140625 6.859375 C 81.234375 6.765625 81.332031 6.679688 81.4375 6.59375 C 81.269531 6.511719 81.144531 6.40625 81.0625 6.28125 C 80.988281 6.148438 80.953125 6 80.953125 5.84375 C 80.953125 5.636719 80.992188 5.453125 81.078125 5.296875 C 81.160156 5.132812 81.265625 4.980469 81.390625 4.84375 C 81.285156 4.71875 81.203125 4.578125 81.140625 4.421875 C 81.078125 4.265625 81.046875 4.074219 81.046875 3.84375 C 81.046875 3.585938 81.085938 3.351562 81.171875 3.140625 C 81.265625 2.933594 81.390625 2.757812 81.546875 2.609375 C 81.703125 2.464844 81.890625 2.355469 82.109375 2.28125 C 82.335938 2.199219 82.582031 2.15625 82.84375 2.15625 C 82.976562 2.15625 83.101562 2.167969 83.21875 2.1875 C 83.34375 2.199219 83.460938 2.21875 83.578125 2.25 L 84.96875 2.25 C 85.019531 2.25 85.0625 2.28125 85.09375 2.34375 C 85.125 2.398438 85.140625 2.480469 85.140625 2.59375 Z M 83.8125 3.8125 C 83.8125 3.5 83.722656 3.257812 83.546875 3.078125 C 83.378906 2.902344 83.140625 2.8125 82.828125 2.8125 C 82.660156 2.8125 82.515625 2.839844 82.390625 2.890625 C 82.273438 2.945312 82.175781 3.023438 82.09375 3.125 C 82.007812 3.21875 81.945312 3.328125 81.90625 3.453125 C 81.875 3.578125 81.859375 3.710938 81.859375 3.84375 C 81.859375 4.148438 81.941406 4.386719 82.109375 4.5625 C 82.285156 4.730469 82.53125 4.8125 82.84375 4.8125 C 83.007812 4.8125 83.148438 4.789062 83.265625 4.734375 C 83.390625 4.683594 83.492188 4.609375 83.578125 4.515625 C 83.660156 4.421875 83.71875 4.3125 83.75 4.1875 C 83.789062 4.0625 83.8125 3.9375 83.8125 3.8125 Z M 84.25 7.46875 C 84.25 7.269531 84.164062 7.121094 84 7.015625 C 83.832031 6.902344 83.613281 6.839844 83.34375 6.828125 L 82.140625 6.796875 C 82.035156 6.882812 81.945312 6.964844 81.875 7.046875 C 81.800781 7.121094 81.742188 7.1875 81.703125 7.25 C 81.671875 7.320312 81.644531 7.390625 81.625 7.453125 C 81.613281 7.523438 81.609375 7.597656 81.609375 7.671875 C 81.609375 7.890625 81.71875 8.054688 81.9375 8.171875 C 82.164062 8.285156 82.484375 8.34375 82.890625 8.34375 C 83.140625 8.34375 83.347656 8.316406 83.515625 8.265625 C 83.691406 8.222656 83.832031 8.160156 83.9375 8.078125 C 84.050781 7.992188 84.128906 7.898438 84.171875 7.796875 C 84.222656 7.691406 84.25 7.582031 84.25 7.46875 Z M 84.25 7.46875 "
       id="path86" />
    <path
       style=" stroke:none;fill-rule:nonzero;fill:rgb(0%,0%,0%);fill-opacity:1;"
       d="M 88.921875 2.6875 C 88.921875 2.761719 88.914062 2.824219 88.90625 2.875 C 88.90625 2.929688 88.898438 2.96875 88.890625 3 C 88.878906 3.023438 88.863281 3.042969 88.84375 3.0625 C 88.832031 3.074219 88.816406 3.078125 88.796875 3.078125 C 88.765625 3.078125 88.726562 3.074219 88.6875 3.0625 C 88.644531 3.042969 88.597656 3.027344 88.546875 3.015625 C 88.503906 3.007812 88.453125 2.996094 88.390625 2.984375 C 88.328125 2.964844 88.257812 2.953125 88.1875 2.953125 C 88.101562 2.953125 88.019531 2.96875 87.9375 3 C 87.851562 3.03125 87.765625 3.089844 87.671875 3.171875 C 87.585938 3.257812 87.492188 3.359375 87.390625 3.484375 C 87.296875 3.609375 87.1875 3.773438 87.0625 3.96875 L 87.0625 7 C 87.0625 7.023438 87.054688 7.042969 87.046875 7.0625 C 87.035156 7.085938 87.015625 7.105469 86.984375 7.125 C 86.953125 7.132812 86.90625 7.140625 86.84375 7.140625 C 86.789062 7.148438 86.722656 7.15625 86.640625 7.15625 C 86.554688 7.15625 86.488281 7.148438 86.4375 7.140625 C 86.382812 7.140625 86.34375 7.132812 86.3125 7.125 C 86.28125 7.105469 86.253906 7.085938 86.234375 7.0625 C 86.222656 7.042969 86.21875 7.023438 86.21875 7 L 86.21875 2.375 C 86.21875 2.355469 86.222656 2.335938 86.234375 2.3125 C 86.242188 2.292969 86.265625 2.277344 86.296875 2.265625 C 86.328125 2.246094 86.363281 2.234375 86.40625 2.234375 C 86.457031 2.226562 86.523438 2.21875 86.609375 2.21875 C 86.679688 2.21875 86.742188 2.226562 86.796875 2.234375 C 86.847656 2.234375 86.882812 2.246094 86.90625 2.265625 C 86.9375 2.277344 86.957031 2.292969 86.96875 2.3125 C 86.976562 2.335938 86.984375 2.355469 86.984375 2.375 L 86.984375 3.046875 C 87.109375 2.871094 87.226562 2.726562 87.34375 2.609375 C 87.457031 2.484375 87.5625 2.390625 87.65625 2.328125 C 87.757812 2.265625 87.859375 2.226562 87.953125 2.203125 C 88.046875 2.171875 88.144531 2.15625 88.25 2.15625 C 88.289062 2.15625 88.335938 2.164062 88.390625 2.171875 C 88.453125 2.171875 88.515625 2.179688 88.578125 2.1875 C 88.640625 2.199219 88.691406 2.214844 88.734375 2.234375 C 88.785156 2.257812 88.820312 2.277344 88.84375 2.296875 C 88.863281 2.308594 88.875 2.324219 88.875 2.34375 C 88.882812 2.355469 88.890625 2.371094 88.890625 2.390625 C 88.898438 2.414062 88.90625 2.449219 88.90625 2.5 C 88.914062 2.542969 88.921875 2.605469 88.921875 2.6875 Z M 88.921875 2.6875 "
       id="path88" />
    <path
       style=" stroke:none;fill-rule:nonzero;fill:rgb(0%,0%,0%);fill-opacity:1;"
       d="M 94.175781 4.640625 C 94.175781 5.015625 94.121094 5.367188 94.019531 5.6875 C 93.925781 6 93.777344 6.273438 93.582031 6.5 C 93.382812 6.730469 93.132812 6.90625 92.832031 7.03125 C 92.539062 7.15625 92.199219 7.21875 91.816406 7.21875 C 91.429688 7.21875 91.097656 7.164062 90.816406 7.0625 C 90.535156 6.949219 90.300781 6.78125 90.113281 6.5625 C 89.925781 6.34375 89.785156 6.085938 89.691406 5.78125 C 89.605469 5.46875 89.566406 5.121094 89.566406 4.734375 C 89.566406 4.359375 89.613281 4.015625 89.707031 3.703125 C 89.800781 3.382812 89.945312 3.105469 90.144531 2.875 C 90.339844 2.648438 90.585938 2.46875 90.878906 2.34375 C 91.167969 2.21875 91.511719 2.15625 91.910156 2.15625 C 92.292969 2.15625 92.628906 2.214844 92.910156 2.328125 C 93.191406 2.433594 93.425781 2.59375 93.613281 2.8125 C 93.800781 3.03125 93.941406 3.296875 94.035156 3.609375 C 94.128906 3.914062 94.175781 4.257812 94.175781 4.640625 Z M 93.285156 4.6875 C 93.285156 4.449219 93.257812 4.21875 93.207031 4 C 93.164062 3.773438 93.089844 3.574219 92.988281 3.40625 C 92.882812 3.242188 92.738281 3.109375 92.550781 3.015625 C 92.371094 2.914062 92.148438 2.859375 91.878906 2.859375 C 91.628906 2.859375 91.410156 2.90625 91.222656 3 C 91.042969 3.085938 90.898438 3.210938 90.785156 3.375 C 90.667969 3.53125 90.582031 3.726562 90.519531 3.953125 C 90.464844 4.171875 90.441406 4.414062 90.441406 4.671875 C 90.441406 4.921875 90.460938 5.164062 90.503906 5.390625 C 90.554688 5.609375 90.632812 5.804688 90.738281 5.96875 C 90.851562 6.136719 90.996094 6.273438 91.175781 6.375 C 91.363281 6.46875 91.589844 6.515625 91.863281 6.515625 C 92.101562 6.515625 92.308594 6.476562 92.488281 6.390625 C 92.675781 6.296875 92.824219 6.171875 92.941406 6.015625 C 93.054688 5.851562 93.136719 5.65625 93.191406 5.4375 C 93.253906 5.210938 93.285156 4.960938 93.285156 4.6875 Z M 93.285156 4.6875 "
       id="path90" />
    <path
       style=" stroke:none;fill-rule:nonzero;fill:rgb(0%,0%,0%);fill-opacity:1;"
       d="M 99.363281 7 C 99.363281 7.023438 99.355469 7.042969 99.347656 7.0625 C 99.335938 7.085938 99.316406 7.105469 99.285156 7.125 C 99.253906 7.132812 99.210938 7.140625 99.160156 7.140625 C 99.105469 7.148438 99.050781 7.15625 98.988281 7.15625 C 98.902344 7.15625 98.835938 7.148438 98.785156 7.140625 C 98.742188 7.140625 98.707031 7.132812 98.675781 7.125 C 98.644531 7.105469 98.621094 7.085938 98.613281 7.0625 C 98.601562 7.042969 98.597656 7.023438 98.597656 7 L 98.597656 6.390625 C 98.335938 6.683594 98.074219 6.898438 97.816406 7.03125 C 97.554688 7.15625 97.292969 7.21875 97.035156 7.21875 C 96.730469 7.21875 96.472656 7.171875 96.253906 7.078125 C 96.042969 6.976562 95.871094 6.835938 95.738281 6.65625 C 95.613281 6.480469 95.523438 6.277344 95.472656 6.046875 C 95.417969 5.808594 95.394531 5.523438 95.394531 5.1875 L 95.394531 2.375 C 95.394531 2.355469 95.398438 2.335938 95.410156 2.3125 C 95.417969 2.292969 95.441406 2.277344 95.472656 2.265625 C 95.503906 2.246094 95.542969 2.234375 95.597656 2.234375 C 95.660156 2.226562 95.730469 2.21875 95.816406 2.21875 C 95.898438 2.21875 95.964844 2.226562 96.019531 2.234375 C 96.070312 2.234375 96.113281 2.246094 96.144531 2.265625 C 96.175781 2.277344 96.195312 2.292969 96.207031 2.3125 C 96.226562 2.335938 96.238281 2.355469 96.238281 2.375 L 96.238281 5.0625 C 96.238281 5.335938 96.257812 5.554688 96.300781 5.71875 C 96.339844 5.886719 96.398438 6.027344 96.472656 6.140625 C 96.554688 6.246094 96.660156 6.335938 96.785156 6.40625 C 96.910156 6.46875 97.050781 6.5 97.207031 6.5 C 97.425781 6.5 97.636719 6.429688 97.847656 6.28125 C 98.054688 6.125 98.277344 5.902344 98.519531 5.609375 L 98.519531 2.375 C 98.519531 2.355469 98.523438 2.335938 98.535156 2.3125 C 98.542969 2.292969 98.566406 2.277344 98.597656 2.265625 C 98.636719 2.246094 98.683594 2.234375 98.738281 2.234375 C 98.789062 2.226562 98.855469 2.21875 98.941406 2.21875 C 99.023438 2.21875 99.089844 2.226562 99.144531 2.234375 C 99.195312 2.234375 99.238281 2.246094 99.269531 2.265625 C 99.300781 2.277344 99.320312 2.292969 99.332031 2.3125 C 99.351562 2.335938 99.363281 2.355469 99.363281 2.375 Z M 99.363281 7 "
       id="path92" />
    <path
       style=" stroke:none;fill-rule:nonzero;fill:rgb(0%,0%,0%);fill-opacity:1;"
       d="M 105.175781 4.625 C 105.175781 5.023438 105.128906 5.382812 105.035156 5.703125 C 104.949219 6.027344 104.824219 6.304688 104.660156 6.53125 C 104.492188 6.75 104.285156 6.921875 104.035156 7.046875 C 103.785156 7.160156 103.496094 7.21875 103.175781 7.21875 C 103.039062 7.21875 102.910156 7.203125 102.785156 7.171875 C 102.667969 7.148438 102.554688 7.117188 102.441406 7.0625 C 102.335938 7 102.226562 6.929688 102.113281 6.84375 C 102.007812 6.75 101.894531 6.640625 101.769531 6.515625 L 101.769531 8.828125 C 101.769531 8.859375 101.761719 8.882812 101.753906 8.90625 C 101.742188 8.925781 101.722656 8.941406 101.691406 8.953125 C 101.660156 8.960938 101.613281 8.96875 101.550781 8.96875 C 101.496094 8.976562 101.429688 8.984375 101.347656 8.984375 C 101.261719 8.984375 101.195312 8.976562 101.144531 8.96875 C 101.089844 8.96875 101.050781 8.960938 101.019531 8.953125 C 100.988281 8.941406 100.960938 8.925781 100.941406 8.90625 C 100.929688 8.882812 100.925781 8.859375 100.925781 8.828125 L 100.925781 2.375 C 100.925781 2.355469 100.929688 2.335938 100.941406 2.3125 C 100.949219 2.292969 100.972656 2.277344 101.003906 2.265625 C 101.035156 2.246094 101.070312 2.234375 101.113281 2.234375 C 101.164062 2.226562 101.226562 2.21875 101.300781 2.21875 C 101.371094 2.21875 101.429688 2.226562 101.472656 2.234375 C 101.523438 2.234375 101.558594 2.246094 101.582031 2.265625 C 101.613281 2.277344 101.632812 2.292969 101.644531 2.3125 C 101.664062 2.335938 101.675781 2.355469 101.675781 2.375 L 101.675781 3 C 101.808594 2.855469 101.941406 2.730469 102.066406 2.625 C 102.199219 2.523438 102.332031 2.4375 102.457031 2.375 C 102.589844 2.304688 102.726562 2.25 102.863281 2.21875 C 103.007812 2.179688 103.160156 2.15625 103.316406 2.15625 C 103.648438 2.15625 103.929688 2.226562 104.160156 2.359375 C 104.398438 2.484375 104.589844 2.664062 104.738281 2.890625 C 104.894531 3.109375 105.003906 3.371094 105.066406 3.671875 C 105.136719 3.964844 105.175781 4.28125 105.175781 4.625 Z M 104.285156 4.71875 C 104.285156 4.480469 104.261719 4.25 104.222656 4.03125 C 104.191406 3.8125 104.128906 3.621094 104.035156 3.453125 C 103.949219 3.277344 103.835938 3.136719 103.691406 3.03125 C 103.542969 2.929688 103.363281 2.875 103.144531 2.875 C 103.027344 2.875 102.917969 2.898438 102.816406 2.9375 C 102.710938 2.96875 102.601562 3.023438 102.488281 3.09375 C 102.382812 3.15625 102.269531 3.246094 102.144531 3.359375 C 102.027344 3.476562 101.902344 3.617188 101.769531 3.78125 L 101.769531 5.625 C 102.007812 5.90625 102.230469 6.125 102.441406 6.28125 C 102.648438 6.429688 102.867188 6.5 103.097656 6.5 C 103.304688 6.5 103.480469 6.449219 103.628906 6.34375 C 103.785156 6.242188 103.910156 6.105469 104.003906 5.9375 C 104.097656 5.761719 104.164062 5.570312 104.207031 5.359375 C 104.257812 5.140625 104.285156 4.929688 104.285156 4.71875 Z M 104.285156 4.71875 "
       id="path94" />
    <path
       style=" stroke:none;fill-rule:nonzero;fill:rgb(0%,0%,0%);fill-opacity:1;"
       d="M 115.480469 4.640625 C 115.480469 5.015625 115.425781 5.367188 115.324219 5.6875 C 115.230469 6 115.082031 6.273438 114.886719 6.5 C 114.6875 6.730469 114.4375 6.90625 114.136719 7.03125 C 113.84375 7.15625 113.503906 7.21875 113.121094 7.21875 C 112.734375 7.21875 112.402344 7.164062 112.121094 7.0625 C 111.839844 6.949219 111.605469 6.78125 111.417969 6.5625 C 111.230469 6.34375 111.089844 6.085938 110.996094 5.78125 C 110.910156 5.46875 110.871094 5.121094 110.871094 4.734375 C 110.871094 4.359375 110.917969 4.015625 111.011719 3.703125 C 111.105469 3.382812 111.25 3.105469 111.449219 2.875 C 111.644531 2.648438 111.890625 2.46875 112.183594 2.34375 C 112.472656 2.21875 112.816406 2.15625 113.214844 2.15625 C 113.597656 2.15625 113.933594 2.214844 114.214844 2.328125 C 114.496094 2.433594 114.730469 2.59375 114.917969 2.8125 C 115.105469 3.03125 115.246094 3.296875 115.339844 3.609375 C 115.433594 3.914062 115.480469 4.257812 115.480469 4.640625 Z M 114.589844 4.6875 C 114.589844 4.449219 114.5625 4.21875 114.511719 4 C 114.46875 3.773438 114.394531 3.574219 114.292969 3.40625 C 114.1875 3.242188 114.042969 3.109375 113.855469 3.015625 C 113.675781 2.914062 113.453125 2.859375 113.183594 2.859375 C 112.933594 2.859375 112.714844 2.90625 112.527344 3 C 112.347656 3.085938 112.203125 3.210938 112.089844 3.375 C 111.972656 3.53125 111.886719 3.726562 111.824219 3.953125 C 111.769531 4.171875 111.746094 4.414062 111.746094 4.671875 C 111.746094 4.921875 111.765625 5.164062 111.808594 5.390625 C 111.859375 5.609375 111.9375 5.804688 112.042969 5.96875 C 112.15625 6.136719 112.300781 6.273438 112.480469 6.375 C 112.667969 6.46875 112.894531 6.515625 113.167969 6.515625 C 113.40625 6.515625 113.613281 6.476562 113.792969 6.390625 C 113.980469 6.296875 114.128906 6.171875 114.246094 6.015625 C 114.359375 5.851562 114.441406 5.65625 114.496094 5.4375 C 114.558594 5.210938 114.589844 4.960938 114.589844 4.6875 Z M 114.589844 4.6875 "
       id="path96" />
    <g
       clip-path="url(#clip3)"
       clip-rule="nonzero"
       id="g100">
      <path
         style=" stroke:none;fill-rule:nonzero;fill:rgb(0%,0%,0%);fill-opacity:1;"
         d="M 119.125 6.65625 C 119.125 6.761719 119.113281 6.84375 119.09375 6.90625 C 119.082031 6.960938 119.0625 7 119.03125 7.03125 C 119.007812 7.054688 118.96875 7.078125 118.90625 7.109375 C 118.851562 7.128906 118.789062 7.144531 118.71875 7.15625 C 118.65625 7.175781 118.582031 7.191406 118.5 7.203125 C 118.425781 7.210938 118.347656 7.21875 118.265625 7.21875 C 118.023438 7.21875 117.820312 7.1875 117.65625 7.125 C 117.488281 7.054688 117.347656 6.953125 117.234375 6.828125 C 117.128906 6.703125 117.050781 6.542969 117 6.34375 C 116.945312 6.148438 116.921875 5.914062 116.921875 5.640625 L 116.921875 2.953125 L 116.28125 2.953125 C 116.226562 2.953125 116.1875 2.929688 116.15625 2.875 C 116.125 2.8125 116.109375 2.726562 116.109375 2.609375 C 116.109375 2.539062 116.109375 2.480469 116.109375 2.4375 C 116.117188 2.398438 116.128906 2.359375 116.140625 2.328125 C 116.160156 2.296875 116.179688 2.277344 116.203125 2.265625 C 116.222656 2.257812 116.25 2.25 116.28125 2.25 L 116.921875 2.25 L 116.921875 1.15625 C 116.921875 1.125 116.925781 1.101562 116.9375 1.078125 C 116.945312 1.058594 116.96875 1.042969 117 1.03125 C 117.039062 1.023438 117.085938 1.011719 117.140625 1 C 117.191406 0.992188 117.257812 0.984375 117.34375 0.984375 C 117.425781 0.984375 117.492188 0.992188 117.546875 1 C 117.609375 1.011719 117.65625 1.023438 117.6875 1.03125 C 117.71875 1.042969 117.738281 1.058594 117.75 1.078125 C 117.757812 1.101562 117.765625 1.125 117.765625 1.15625 L 117.765625 2.25 L 118.953125 2.25 C 118.984375 2.25 119.007812 2.257812 119.03125 2.265625 C 119.050781 2.277344 119.066406 2.296875 119.078125 2.328125 C 119.085938 2.359375 119.097656 2.398438 119.109375 2.4375 C 119.117188 2.480469 119.125 2.539062 119.125 2.609375 C 119.125 2.726562 119.109375 2.8125 119.078125 2.875 C 119.046875 2.929688 119.003906 2.953125 118.953125 2.953125 L 117.765625 2.953125 L 117.765625 5.53125 C 117.765625 5.84375 117.8125 6.085938 117.90625 6.25 C 118 6.40625 118.164062 6.484375 118.40625 6.484375 C 118.488281 6.484375 118.5625 6.480469 118.625 6.46875 C 118.6875 6.449219 118.738281 6.433594 118.78125 6.421875 C 118.832031 6.402344 118.875 6.386719 118.90625 6.375 C 118.945312 6.355469 118.976562 6.34375 119 6.34375 C 119.019531 6.34375 119.035156 6.351562 119.046875 6.359375 C 119.066406 6.371094 119.078125 6.386719 119.078125 6.40625 C 119.085938 6.429688 119.097656 6.460938 119.109375 6.5 C 119.117188 6.542969 119.125 6.59375 119.125 6.65625 Z M 119.125 6.65625 "
         id="path98" />
    </g>
    <g
       clip-path="url(#clip4)"
       clip-rule="nonzero"
       id="g104">
      <path
         style=" stroke:none;fill-rule:nonzero;fill:rgb(0%,0%,0%);fill-opacity:1;"
         d="M 124.21875 7 C 124.21875 7.023438 124.207031 7.042969 124.1875 7.0625 C 124.175781 7.085938 124.15625 7.105469 124.125 7.125 C 124.09375 7.132812 124.046875 7.140625 123.984375 7.140625 C 123.929688 7.148438 123.867188 7.15625 123.796875 7.15625 C 123.703125 7.15625 123.628906 7.148438 123.578125 7.140625 C 123.523438 7.140625 123.484375 7.132812 123.453125 7.125 C 123.421875 7.105469 123.394531 7.085938 123.375 7.0625 C 123.363281 7.042969 123.359375 7.023438 123.359375 7 L 123.359375 4.296875 C 123.359375 4.039062 123.335938 3.828125 123.296875 3.671875 C 123.253906 3.507812 123.191406 3.367188 123.109375 3.25 C 123.035156 3.125 122.9375 3.039062 122.8125 2.984375 C 122.6875 2.921875 122.546875 2.890625 122.390625 2.890625 C 122.171875 2.890625 121.957031 2.96875 121.75 3.125 C 121.539062 3.273438 121.316406 3.484375 121.078125 3.765625 L 121.078125 7 C 121.078125 7.023438 121.070312 7.042969 121.0625 7.0625 C 121.050781 7.085938 121.03125 7.105469 121 7.125 C 120.96875 7.132812 120.921875 7.140625 120.859375 7.140625 C 120.804688 7.148438 120.738281 7.15625 120.65625 7.15625 C 120.570312 7.15625 120.503906 7.148438 120.453125 7.140625 C 120.398438 7.140625 120.359375 7.132812 120.328125 7.125 C 120.296875 7.105469 120.269531 7.085938 120.25 7.0625 C 120.238281 7.042969 120.234375 7.023438 120.234375 7 L 120.234375 0.140625 C 120.234375 0.121094 120.238281 0.101562 120.25 0.078125 C 120.269531 0.0585938 120.296875 0.0429688 120.328125 0.03125 C 120.359375 0.0117188 120.398438 0 120.453125 0 C 120.503906 -0.0078125 120.570312 -0.015625 120.65625 -0.015625 C 120.738281 -0.015625 120.804688 -0.0078125 120.859375 0 C 120.921875 0 120.96875 0.0117188 121 0.03125 C 121.03125 0.0429688 121.050781 0.0585938 121.0625 0.078125 C 121.070312 0.101562 121.078125 0.121094 121.078125 0.140625 L 121.078125 2.90625 C 121.328125 2.65625 121.570312 2.46875 121.8125 2.34375 C 122.0625 2.21875 122.3125 2.15625 122.5625 2.15625 C 122.863281 2.15625 123.117188 2.210938 123.328125 2.3125 C 123.546875 2.417969 123.71875 2.558594 123.84375 2.734375 C 123.976562 2.902344 124.070312 3.105469 124.125 3.34375 C 124.1875 3.574219 124.21875 3.855469 124.21875 4.1875 Z M 124.21875 7 "
         id="path102" />
    </g>
    <path
       style=" stroke:none;fill-rule:nonzero;fill:rgb(0%,0%,0%);fill-opacity:1;"
       d="M 129.683594 4.484375 C 129.683594 4.621094 129.644531 4.71875 129.574219 4.78125 C 129.511719 4.835938 129.4375 4.859375 129.355469 4.859375 L 126.339844 4.859375 C 126.339844 5.121094 126.359375 5.355469 126.402344 5.5625 C 126.453125 5.761719 126.535156 5.933594 126.652344 6.078125 C 126.777344 6.226562 126.933594 6.339844 127.121094 6.421875 C 127.316406 6.496094 127.558594 6.53125 127.839844 6.53125 C 128.058594 6.53125 128.25 6.515625 128.417969 6.484375 C 128.59375 6.445312 128.746094 6.402344 128.871094 6.359375 C 128.996094 6.320312 129.09375 6.28125 129.167969 6.25 C 129.25 6.210938 129.3125 6.1875 129.355469 6.1875 C 129.375 6.1875 129.394531 6.195312 129.417969 6.203125 C 129.4375 6.214844 129.453125 6.234375 129.464844 6.265625 C 129.472656 6.289062 129.480469 6.320312 129.480469 6.359375 C 129.488281 6.402344 129.496094 6.453125 129.496094 6.515625 C 129.496094 6.558594 129.488281 6.59375 129.480469 6.625 C 129.480469 6.65625 129.472656 6.6875 129.464844 6.71875 C 129.464844 6.742188 129.457031 6.761719 129.449219 6.78125 C 129.4375 6.804688 129.421875 6.824219 129.402344 6.84375 C 129.378906 6.867188 129.324219 6.898438 129.230469 6.9375 C 129.136719 6.980469 129.015625 7.023438 128.871094 7.0625 C 128.722656 7.105469 128.550781 7.140625 128.355469 7.171875 C 128.167969 7.203125 127.964844 7.21875 127.746094 7.21875 C 127.371094 7.21875 127.035156 7.164062 126.746094 7.0625 C 126.464844 6.960938 126.222656 6.804688 126.027344 6.59375 C 125.839844 6.386719 125.691406 6.125 125.589844 5.8125 C 125.496094 5.492188 125.449219 5.121094 125.449219 4.703125 C 125.449219 4.308594 125.496094 3.953125 125.589844 3.640625 C 125.691406 3.328125 125.839844 3.0625 126.027344 2.84375 C 126.222656 2.617188 126.457031 2.445312 126.730469 2.328125 C 127.011719 2.214844 127.316406 2.15625 127.652344 2.15625 C 128.015625 2.15625 128.324219 2.214844 128.574219 2.328125 C 128.832031 2.445312 129.042969 2.601562 129.199219 2.796875 C 129.363281 2.996094 129.484375 3.230469 129.558594 3.5 C 129.640625 3.761719 129.683594 4.039062 129.683594 4.328125 Z M 128.839844 4.234375 C 128.847656 3.796875 128.75 3.453125 128.542969 3.203125 C 128.332031 2.945312 128.027344 2.8125 127.621094 2.8125 C 127.410156 2.8125 127.230469 2.855469 127.074219 2.9375 C 126.917969 3.011719 126.78125 3.117188 126.667969 3.25 C 126.5625 3.375 126.480469 3.527344 126.417969 3.703125 C 126.363281 3.871094 126.339844 4.046875 126.339844 4.234375 Z M 128.839844 4.234375 "
       id="path106" />
    <path
       style=" stroke:none;fill-rule:nonzero;fill:rgb(0%,0%,0%);fill-opacity:1;"
       d="M 133.671875 2.6875 C 133.671875 2.761719 133.664062 2.824219 133.65625 2.875 C 133.65625 2.929688 133.648438 2.96875 133.640625 3 C 133.628906 3.023438 133.613281 3.042969 133.59375 3.0625 C 133.582031 3.074219 133.566406 3.078125 133.546875 3.078125 C 133.515625 3.078125 133.476562 3.074219 133.4375 3.0625 C 133.394531 3.042969 133.347656 3.027344 133.296875 3.015625 C 133.253906 3.007812 133.203125 2.996094 133.140625 2.984375 C 133.078125 2.964844 133.007812 2.953125 132.9375 2.953125 C 132.851562 2.953125 132.769531 2.96875 132.6875 3 C 132.601562 3.03125 132.515625 3.089844 132.421875 3.171875 C 132.335938 3.257812 132.242188 3.359375 132.140625 3.484375 C 132.046875 3.609375 131.9375 3.773438 131.8125 3.96875 L 131.8125 7 C 131.8125 7.023438 131.804688 7.042969 131.796875 7.0625 C 131.785156 7.085938 131.765625 7.105469 131.734375 7.125 C 131.703125 7.132812 131.65625 7.140625 131.59375 7.140625 C 131.539062 7.148438 131.472656 7.15625 131.390625 7.15625 C 131.304688 7.15625 131.238281 7.148438 131.1875 7.140625 C 131.132812 7.140625 131.09375 7.132812 131.0625 7.125 C 131.03125 7.105469 131.003906 7.085938 130.984375 7.0625 C 130.972656 7.042969 130.96875 7.023438 130.96875 7 L 130.96875 2.375 C 130.96875 2.355469 130.972656 2.335938 130.984375 2.3125 C 130.992188 2.292969 131.015625 2.277344 131.046875 2.265625 C 131.078125 2.246094 131.113281 2.234375 131.15625 2.234375 C 131.207031 2.226562 131.273438 2.21875 131.359375 2.21875 C 131.429688 2.21875 131.492188 2.226562 131.546875 2.234375 C 131.597656 2.234375 131.632812 2.246094 131.65625 2.265625 C 131.6875 2.277344 131.707031 2.292969 131.71875 2.3125 C 131.726562 2.335938 131.734375 2.355469 131.734375 2.375 L 131.734375 3.046875 C 131.859375 2.871094 131.976562 2.726562 132.09375 2.609375 C 132.207031 2.484375 132.3125 2.390625 132.40625 2.328125 C 132.507812 2.265625 132.609375 2.226562 132.703125 2.203125 C 132.796875 2.171875 132.894531 2.15625 133 2.15625 C 133.039062 2.15625 133.085938 2.164062 133.140625 2.171875 C 133.203125 2.171875 133.265625 2.179688 133.328125 2.1875 C 133.390625 2.199219 133.441406 2.214844 133.484375 2.234375 C 133.535156 2.257812 133.570312 2.277344 133.59375 2.296875 C 133.613281 2.308594 133.625 2.324219 133.625 2.34375 C 133.632812 2.355469 133.640625 2.371094 133.640625 2.390625 C 133.648438 2.414062 133.65625 2.449219 133.65625 2.5 C 133.664062 2.542969 133.671875 2.605469 133.671875 2.6875 Z M 133.671875 2.6875 "
       id="path108" />
    <path
       style="fill:none;stroke-width:0.583;stroke-linecap:butt;stroke-linejoin:round;stroke:rgb(0%,0%,0%);stroke-opacity:1;stroke-miterlimit:10;"
       d="M 14.160156 106.664062 C 12.335938 106.664062 10.855469 106.542969 10.855469 106.390625 L 10.855469 80.5 C 10.855469 80.347656 12.335938 80.222656 14.160156 80.222656 "
       transform="matrix(0,1,1,0,0,0)"
       id="path110" />
    <path
       style="fill:none;stroke-width:0.583;stroke-linecap:butt;stroke-linejoin:round;stroke:rgb(0%,0%,0%);stroke-opacity:1;stroke-miterlimit:10;"
       d="M 14.160156 135.414062 C 12.335938 135.414062 10.855469 135.292969 10.855469 135.140625 L 10.855469 109.25 C 10.855469 109.097656 12.335938 108.972656 14.160156 108.972656 "
       transform="matrix(0,1,1,0,0,0)"
       id="path112" />
  </g>
</svg>
