<?xml version="1.0" encoding="UTF-8" standalone="no"?>
<!DOCTYPE svg PUBLIC "-//W3C//DTD SVG 1.1//EN" "http://www.w3.org/Graphics/SVG/1.1/DTD/svg11.dtd">
<svg xmlns="http://www.w3.org/2000/svg" version="1.1" xmlns:xlink="http://www.w3.org/1999/xlink" viewBox="0 0 512 288">

<!-- Copyright 2015-2022 Isaac Gouy -->

<!-- Box plot chart showing benchmark program performance grouped by implementation language -->

<!-- The Computer Language Benchmarks Game -->
<!-- https://benchmarksgame-team.pages.debian.net/benchmarksgame/license.html -->

<g style="stroke: #ccc;" >
<line x1="51" y1="264" x2="461" y2="264" />
<line x1="51" y1="221.57" x2="461" y2="221.57" />
<line x1="51" y1="201.85" x2="461" y2="201.85" />
<line x1="51" y1="175.08" x2="461" y2="175.08" />
<line x1="51" y1="132.65" x2="461" y2="132.65" />
<line x1="51" y1="112.92" x2="461" y2="112.92" />
<line x1="51" y1="86.15" x2="461" y2="86.15" />
<line x1="51" y1="43.73" x2="461" y2="43.73" />
<line x1="51" y1="24" x2="461" y2="24" />
</g>
<g style="text-anchor: end; font-family: Ubuntu,Verdana,sans-serif; font-size: 0.9em;" >
<text x="51" y="262" >1</text>
<text x="51" y="219.57" >3</text>
<text x="51" y="199.85" >5</text>
<text x="51" y="173.08" >10</text>
<text x="51" y="130.65" >30</text>
<text x="51" y="110.92" >50</text>
<text x="51" y="84.15" >100</text>
<text x="51" y="41.73" >300</text>
<text x="51" y="22" ></text>
</g>
<defs>
<linearGradient id="grade" x1="0" y1="0" x2="0" y2="1">
<stop offset="0" style="stop-color: white" stop-opacity="0.6"/>
<stop offset="1" style="stop-color: white" stop-opacity="0.8"/>
</linearGradient>
<mask id="fade">
<rect x="58" y="24" width="452" height="288" fill="url(#grade)"  />
</mask>
<g id="backgroundText" style="text-anchor: end; font-family: Ubuntu,Verdana,sans-serif; font-size: 1em;">
<text x="16" y="0" transform="rotate(270,16,0)" xml:space="preserve">   C gcc   C gcc   C gcc   C gcc   C gcc</text>
<text x="43" y="0" transform="rotate(270,43,0)" xml:space="preserve">   C++ g++   C++ g++   C++ g++   C++ g++</text>
<text x="70" y="0" transform="rotate(270,70,0)" xml:space="preserve">   Rust   Rust   Rust   Rust   Rust   Rust</text>
<text x="97" y="0" transform="rotate(270,97,0)" xml:space="preserve">   C# .NET   C# .NET   C# .NET   C# .NET</text>
<text x="124" y="0" transform="rotate(270,124,0)" xml:space="preserve">   Classic Fortran   Classic Fortran</text>
<text x="151" y="0" transform="rotate(270,151,0)" xml:space="preserve">   Julia   Julia   Julia   Julia   Julia</text>
<text x="178" y="0" transform="rotate(270,178,0)" xml:space="preserve">   Chapel   Chapel   Chapel   Chapel   Chapel</text>
<text x="205" y="0" transform="rotate(270,205,0)" xml:space="preserve">   Ada 2012 GNAT   Ada 2012 GNAT   Ada 2012 GNAT</text>
<text x="232" y="0" transform="rotate(270,232,0)" xml:space="preserve">   Haskell GHC   Haskell GHC   Haskell GHC</text>
<text x="259" y="0" transform="rotate(270,259,0)" xml:space="preserve">   OCaml   OCaml   OCaml   OCaml   OCaml</text>
<text x="286" y="0" transform="rotate(270,286,0)" xml:space="preserve">   Go   Go   Go   Go   Go   Go   Go   Go   Go   Go</text>
<text x="313" y="0" transform="rotate(270,313,0)" xml:space="preserve">   Swift   Swift   Swift   Swift   Swift</text>
<text x="340" y="0" transform="rotate(270,340,0)" xml:space="preserve">   F# .NET   F# .NET   F# .NET   F# .NET</text>
<text x="367" y="0" transform="rotate(270,367,0)" xml:space="preserve">   Java   Java   Java   Java   Java   Java</text>
<text x="394" y="0" transform="rotate(270,394,0)" xml:space="preserve">   Free Pascal   Free Pascal   Free Pascal</text>
</g>
</defs>
<use x="60" y="27" xlink:href="#backgroundText"/>
<rect x="58" y="24" width="452" height="288" fill="white" mask="url(#fade)" />
<rect x="58" y="264" width="452" height="288" style="fill: white; stroke: white;" />
<g style="fill: black; stroke: black;">
<rect x="72" y="244.04" width="1" height="19.96" />
<rect x="99" y="237.96" width="1" height="26.04" />
<rect x="126" y="238.01" width="1" height="25.99" />
<rect x="153" y="196.88" width="1" height="63.22" />
<rect x="180" y="209.39" width="1" height="53.27" />
<rect x="207" y="202.68" width="1" height="44.36" />
<rect x="234" y="189.05" width="1" height="73.82" />
<rect x="261" y="203.15" width="1" height="59.3" />
<rect x="288" y="192.75" width="1" height="62.86" />
<rect x="315" y="189.23" width="1" height="72.8" />
<rect x="342" y="190.49" width="1" height="62.9" />
<rect x="369" y="191.95" width="1" height="70.08" />
<rect x="396" y="185.84" width="1" height="73.34" />
<rect x="423" y="181.89" width="1" height="76.53" />
<rect x="450" y="187.79" width="1" height="74.92" />
</g>
<g style="fill: white; stroke: black;">
<rect x="62" y="254.75" width="22" height="9.25" />
<rect x="89" y="246.67" width="22" height="17.33" />
<rect x="116" y="243.2" width="22" height="18.36" />
<rect x="143" y="213.3" width="22" height="35.16" />
<rect x="170" y="226.17" width="22" height="17.4" />
<rect x="197" y="221.48" width="22" height="20.91" />
<rect x="224" y="211.57" width="22" height="28.96" />
<rect x="251" y="210.84" width="22" height="20.5" />
<rect x="278" y="204.69" width="22" height="25.11" />
<rect x="305" y="207.35" width="22" height="19.67" />
<rect x="332" y="204.34" width="22" height="13.1" />
<rect x="359" y="209.7" width="22" height="19.02" />
<rect x="386" y="204.88" width="22" height="26.06" />
<rect x="413" y="201.95" width="22" height="23.38" />
<rect x="440" y="196.03" width="22" height="37.98" />
</g>
<g style="fill: black; stroke: black;">
<line x1="68.5" y1="264" x2="78" y2="264" />
<line x1="68.5" y1="244.04" x2="78" y2="244.04" />
<line x1="68.5" y1="235.73" x2="78" y2="235.73" />
<rect x="72" y="235.73" width="1" height="5" />
</g>
<g style="fill: black; stroke: black;">
<rect x="63" y="262.3" width="20" height="1" />
</g>
<g style="fill: black; stroke: black;">
<line x1="95.5" y1="264" x2="105" y2="264" />
<line x1="95.5" y1="237.96" x2="105" y2="237.96" />
</g>
<g style="fill: black; stroke: black;">
<rect x="90" y="260.09" width="20" height="1" />
</g>
<g style="fill: black; stroke: black;">
<line x1="122.5" y1="264" x2="132" y2="264" />
<line x1="122.5" y1="238.01" x2="132" y2="238.01" />
</g>
<g style="fill: black; stroke: black;">
<rect x="117" y="251.36" width="20" height="1" />
</g>
<g style="fill: black; stroke: black;">
<line x1="149.5" y1="260.11" x2="159" y2="260.11" />
<line x1="149.5" y1="196.88" x2="159" y2="196.88" />
</g>
<g style="fill: black; stroke: black;">
<rect x="144" y="238.4" width="20" height="1" />
</g>
<g style="fill: black; stroke: black;">
<line x1="176.5" y1="262.66" x2="186" y2="262.66" />
<line x1="176.5" y1="209.39" x2="186" y2="209.39" />
<line x1="176.5" y1="188.37" x2="186" y2="188.37" />
<rect x="180" y="188.37" width="1" height="5" />
</g>
<g style="fill: black; stroke: black;">
<rect x="171" y="236.57" width="20" height="1" />
</g>
<g style="fill: black; stroke: black;">
<line x1="203.5" y1="247.04" x2="213" y2="247.04" />
<line x1="203.5" y1="202.68" x2="213" y2="202.68" />
<line x1="203.5" y1="171.54" x2="213" y2="171.54" />
<rect x="207" y="171.54" width="1" height="5" />
</g>
<g style="fill: black; stroke: black;">
<rect x="198" y="235.93" width="20" height="1" />
</g>
<g style="fill: black; stroke: black;">
<line x1="230.5" y1="262.87" x2="240" y2="262.87" />
<line x1="230.5" y1="189.05" x2="240" y2="189.05" />
<line x1="230.5" y1="187.86" x2="240" y2="187.86" />
<rect x="234" y="187.86" width="1" height="5" />
</g>
<g style="fill: black; stroke: black;">
<rect x="225" y="225.37" width="20" height="1" />
</g>
<g style="fill: black; stroke: black;">
<line x1="257.5" y1="262.45" x2="267" y2="262.45" />
<line x1="257.5" y1="203.15" x2="267" y2="203.15" />
</g>
<g style="fill: black; stroke: black;">
<rect x="252" y="220.33" width="20" height="1" />
</g>
<g style="fill: black; stroke: black;">
<line x1="284.5" y1="255.6" x2="294" y2="255.6" />
<line x1="284.5" y1="192.75" x2="294" y2="192.75" />
</g>
<g style="fill: black; stroke: black;">
<rect x="279" y="219.04" width="20" height="1" />
</g>
<g style="fill: black; stroke: black;">
<line x1="311.5" y1="262.03" x2="321" y2="262.03" />
<line x1="311.5" y1="189.23" x2="321" y2="189.23" />
<line x1="311.5" y1="180.78" x2="321" y2="180.78" />
<rect x="315" y="180.78" width="1" height="5" />
</g>
<g style="fill: black; stroke: black;">
<rect x="306" y="215.86" width="20" height="1" />
</g>
<g style="fill: black; stroke: black;">
<line x1="338.5" y1="253.39" x2="348" y2="253.39" />
<line x1="338.5" y1="190.49" x2="348" y2="190.49" />
<line x1="338.5" y1="256.21" x2="348" y2="256.21" />
<rect x="342" y="251.21" width="1" height="5" />
<line x1="338.5" y1="180.68" x2="348" y2="180.68" />
<rect x="342" y="180.68" width="1" height="5" />
</g>
<g style="fill: black; stroke: black;">
<rect x="333" y="212.49" width="20" height="1" />
</g>
<g style="fill: black; stroke: black;">
<line x1="365.5" y1="262.03" x2="375" y2="262.03" />
<line x1="365.5" y1="191.95" x2="375" y2="191.95" />
<line x1="365.5" y1="140.75" x2="375" y2="140.75" />
<rect x="369" y="140.75" width="1" height="5" />
</g>
<g style="fill: black; stroke: black;">
<rect x="360" y="211.18" width="20" height="1" />
</g>
<g style="fill: black; stroke: black;">
<line x1="392.5" y1="259.18" x2="402" y2="259.18" />
<line x1="392.5" y1="185.84" x2="402" y2="185.84" />
</g>
<g style="fill: black; stroke: black;">
<rect x="387" y="210.46" width="20" height="1" />
</g>
<g style="fill: black; stroke: black;">
<line x1="419.5" y1="258.42" x2="429" y2="258.42" />
<line x1="419.5" y1="181.89" x2="429" y2="181.89" />
<line x1="419.5" y1="177.02" x2="429" y2="177.02" />
<rect x="423" y="177.02" width="1" height="5" />
</g>
<g style="fill: black; stroke: black;">
<rect x="414" y="208.64" width="20" height="1" />
</g>
<g style="fill: black; stroke: black;">
<line x1="446.5" y1="262.71" x2="456" y2="262.71" />
<line x1="446.5" y1="187.79" x2="456" y2="187.79" />
</g>
<g style="fill: black; stroke: black;">
<rect x="441" y="207.87" width="20" height="1" />
</g>
<g style="text-anchor: end; font-family: Ubuntu,Verdana,sans-serif; font-size: 0.9em;" >
<text x="462" y="282" >12 May 2022 u64q</text>
<text x="58" y="282" style="text-anchor: start;" >benchmarks game</text>
</g>
<text x="16" y="144" transform="rotate(270,16,144)" style="text-anchor: middle; font-family: Ubuntu,Verdana,sans-serif; font-size: 0.9em;" >program cpu time / lowest</text>
<rect x="58" y="0" width="452" height="23" style="fill: white; stroke: white;" />
<text x="259.5" y="18" style="text-anchor: middle; font-family: Ubuntu,Verdana,sans-serif; font-size: 1.2em;" >How many times more CPU seconds?</text>
<g style="stroke: #333;">
<line x1="58" y1="24" x2="58" y2="264" />
<line x1="461" y1="24" x2="461" y2="264" />
<line x1="58" y1="264" x2="461" y2="264" />
</g>
</svg>

